<svg width="31" height="23" viewBox="0 0 31 23" fill="none" xmlns="http://www.w3.org/2000/svg">
<path d="M29.6004 12.7989C29.4953 12.8777 29.3758 12.935 29.2486 12.9676C29.1213 13.0002 28.989 13.0074 28.859 12.9889C28.729 12.9703 28.6039 12.9263 28.4909 12.8594C28.3779 12.7925 28.2792 12.704 28.2004 12.5989C27.5976 11.7887 26.8131 11.1314 25.9099 10.6798C25.0068 10.2282 24.0102 9.995 23.0004 9.99892C22.8037 9.9989 22.6115 9.94091 22.4476 9.83219C22.2837 9.72347 22.1556 9.56885 22.0791 9.38767C22.0272 9.26464 22.0005 9.13246 22.0005 8.99892C22.0005 8.86539 22.0272 8.7332 22.0791 8.61017C22.1556 8.42899 22.2837 8.27438 22.4476 8.16566C22.6115 8.05694 22.8037 7.99894 23.0004 7.99892C23.5615 7.99887 24.1113 7.84147 24.5874 7.5446C25.0635 7.24773 25.4469 6.82328 25.6938 6.31947C25.9408 5.81567 26.0416 5.25269 25.9846 4.6945C25.9277 4.1363 25.7154 3.60527 25.3717 3.1617C25.0281 2.71813 24.567 2.37982 24.0408 2.18519C23.5145 1.99056 22.9442 1.94741 22.3947 2.06065C21.8451 2.17389 21.3384 2.43897 20.9319 2.82578C20.5255 3.2126 20.2357 3.70565 20.0954 4.24892C20.0625 4.37614 20.005 4.49564 19.926 4.60062C19.847 4.70559 19.748 4.79397 19.6349 4.86071C19.5217 4.92745 19.3965 4.97125 19.2664 4.9896C19.1363 5.00795 19.0038 5.0005 18.8766 4.96767C18.7494 4.93484 18.6299 4.87727 18.5249 4.79826C18.42 4.71924 18.3316 4.62033 18.2648 4.50715C18.1981 4.39398 18.1543 4.26877 18.136 4.13868C18.1176 4.00858 18.125 3.87614 18.1579 3.74892C18.3526 2.99556 18.7204 2.29804 19.2321 1.71186C19.7438 1.12568 20.3853 0.667012 21.1054 0.372359C21.8256 0.0777059 22.6046 -0.0448015 23.3804 0.0145842C24.1563 0.0739698 24.9075 0.31361 25.5745 0.714436C26.2414 1.11526 26.8056 1.66621 27.2221 2.32344C27.6386 2.98068 27.896 3.72605 27.9738 4.50027C28.0516 5.27448 27.9476 6.05616 27.6701 6.78311C27.3926 7.51005 26.9493 8.16221 26.3754 8.68767C27.7351 9.27642 28.9172 10.2107 29.8041 11.3977C29.8829 11.503 29.9402 11.6228 29.9726 11.7503C30.005 11.8778 30.0119 12.0104 29.993 12.1406C29.9741 12.2707 29.9296 12.3959 29.8623 12.5089C29.7949 12.6218 29.7059 12.7204 29.6004 12.7989ZM22.8654 20.4989C22.9377 20.6127 22.9863 20.74 23.0082 20.8731C23.0301 21.0062 23.0248 21.1423 22.9928 21.2733C22.9607 21.4043 22.9024 21.5275 22.8215 21.6354C22.7406 21.7433 22.6387 21.8337 22.5219 21.9012C22.4051 21.9687 22.2759 22.0118 22.142 22.0281C22.0082 22.0444 21.8724 22.0334 21.7428 21.9958C21.6133 21.9582 21.4927 21.8948 21.3883 21.8094C21.2839 21.7241 21.1979 21.6184 21.1354 21.4989C20.5054 20.4323 19.6083 19.5483 18.5324 18.9342C17.4565 18.3201 16.2392 17.9971 15.0004 17.9971C13.7616 17.9971 12.5442 18.3201 11.4683 18.9342C10.3925 19.5483 9.49532 20.4323 8.86538 21.4989C8.80286 21.6184 8.71682 21.7241 8.61243 21.8094C8.50803 21.8948 8.38744 21.9582 8.25792 21.9958C8.12839 22.0334 7.9926 22.0444 7.85871 22.0281C7.72483 22.0118 7.59562 21.9687 7.47885 21.9012C7.36209 21.8337 7.26018 21.7433 7.17926 21.6354C7.09835 21.5275 7.0401 21.4043 7.00801 21.2733C6.97592 21.1423 6.97066 21.0062 6.99255 20.8731C7.01444 20.74 7.06303 20.6127 7.13538 20.4989C8.10488 18.8331 9.58312 17.5223 11.3529 16.7589C10.357 15.9965 9.62516 14.9411 9.26013 13.7412C8.8951 12.5413 8.91525 11.2572 9.31777 10.0693C9.72029 8.88144 10.4849 7.84958 11.5042 7.11877C12.5235 6.38795 13.7462 5.99492 15.0004 5.99492C16.2546 5.99492 17.4773 6.38795 18.4965 7.11877C19.5158 7.84958 20.2805 8.88144 20.683 10.0693C21.0855 11.2572 21.1057 12.5413 20.7406 13.7412C20.3756 14.9411 19.6437 15.9965 18.6479 16.7589C20.4176 17.5223 21.8959 18.8331 22.8654 20.4989ZM15.0004 15.9989C15.7915 15.9989 16.5649 15.7643 17.2227 15.3248C17.8805 14.8853 18.3931 14.2606 18.6959 13.5297C18.9986 12.7988 19.0779 11.9945 18.9235 11.2186C18.7692 10.4426 18.3882 9.7299 17.8288 9.17049C17.2694 8.61108 16.5567 8.23012 15.7807 8.07578C15.0048 7.92144 14.2005 8.00065 13.4696 8.3034C12.7387 8.60615 12.114 9.11884 11.6745 9.77664C11.235 10.4344 11.0004 11.2078 11.0004 11.9989C11.0004 13.0598 11.4218 14.0772 12.172 14.8273C12.9221 15.5775 13.9395 15.9989 15.0004 15.9989ZM8.00038 8.99892C8.00038 8.7337 7.89502 8.47935 7.70749 8.29181C7.51995 8.10428 7.2656 7.99892 7.00038 7.99892C6.43929 7.99887 5.88946 7.84147 5.41334 7.5446C4.93722 7.24773 4.5539 6.82328 4.30692 6.31947C4.05994 5.81567 3.95919 5.25269 4.01613 4.6945C4.07306 4.1363 4.2854 3.60527 4.62901 3.1617C4.97263 2.71813 5.43375 2.37982 5.96 2.18519C6.48626 1.99056 7.05654 1.94741 7.60609 2.06065C8.15563 2.17389 8.66241 2.43897 9.06885 2.82578C9.47529 3.2126 9.76511 3.70565 9.90538 4.24892C9.97168 4.50585 10.1373 4.72592 10.3659 4.86071C10.5945 4.9955 10.8672 5.03398 11.1241 4.96767C11.3811 4.90137 11.6011 4.73571 11.7359 4.50715C11.8707 4.27859 11.9092 4.00585 11.8429 3.74892C11.6482 2.99556 11.2803 2.29804 10.7686 1.71186C10.2569 1.12568 9.61548 0.667012 8.89532 0.372359C8.17516 0.0777059 7.39617 -0.0448015 6.62033 0.0145842C5.84449 0.0739698 5.09321 0.31361 4.42629 0.714436C3.75936 1.11526 3.19519 1.66621 2.77866 2.32344C2.36212 2.98068 2.10473 3.72605 2.02697 4.50027C1.9492 5.27448 2.05319 6.05616 2.33068 6.78311C2.60817 7.51005 3.0515 8.16221 3.62538 8.68767C2.26698 9.27697 1.08627 10.2112 0.200379 11.3977C0.0410836 11.6098 -0.0274023 11.8766 0.00998776 12.1393C0.0473778 12.4019 0.187581 12.639 0.399754 12.7983C0.611927 12.9576 0.878691 13.0261 1.14136 12.9887C1.40403 12.9513 1.64108 12.8111 1.80038 12.5989C2.40311 11.7887 3.18765 11.1314 4.09083 10.6798C4.99401 10.2282 5.9906 9.995 7.00038 9.99892C7.2656 9.99892 7.51995 9.89356 7.70749 9.70603C7.89502 9.51849 8.00038 9.26414 8.00038 8.99892Z" fill="black"/>
</svg>
