<svg width="31" height="24" viewBox="0 0 31 24" fill="none" xmlns="http://www.w3.org/2000/svg">
<path d="M28.7913 14.6325C28.4191 14.3462 27.986 14.1496 27.5255 14.0578C27.0651 13.9661 26.5897 13.9819 26.1362 14.1038L20.9062 15.3063C21.0279 14.7922 21.0317 14.2574 20.9172 13.7417C20.8028 13.226 20.5731 12.7429 20.2454 12.3287C19.9177 11.9144 19.5005 11.5797 19.0251 11.3495C18.5496 11.1194 18.0282 10.9999 17.5 11H11.2425C10.717 10.9987 10.1964 11.1015 9.71092 11.3025C9.22539 11.5036 8.78451 11.7988 8.41375 12.1713L5.58625 15H2C1.46957 15 0.960859 15.2107 0.585786 15.5858C0.210714 15.9609 0 16.4696 0 17L0 22C0 22.5304 0.210714 23.0391 0.585786 23.4142C0.960859 23.7893 1.46957 24 2 24H15C15.0818 24 15.1632 23.99 15.2425 23.97L23.2425 21.97C23.2935 21.9579 23.3433 21.9411 23.3913 21.92L28.25 19.8525L28.305 19.8275C28.772 19.5942 29.1718 19.2458 29.4669 18.8152C29.7621 18.3846 29.9427 17.886 29.9918 17.3663C30.041 16.8466 29.957 16.3229 29.7478 15.8447C29.5387 15.3664 29.2112 14.9492 28.7962 14.6325H28.7913ZM2 17H5V22H2V17ZM27.4287 18.0263L22.6787 20.0488L14.875 22H7V16.4138L9.82875 13.5863C10.0138 13.3997 10.2341 13.2518 10.4768 13.1512C10.7195 13.0506 10.9798 12.9992 11.2425 13H17.5C17.8978 13 18.2794 13.158 18.5607 13.4393C18.842 13.7206 19 14.1022 19 14.5C19 14.8978 18.842 15.2794 18.5607 15.5607C18.2794 15.842 17.8978 16 17.5 16H14C13.7348 16 13.4804 16.1054 13.2929 16.2929C13.1054 16.4804 13 16.7348 13 17C13 17.2652 13.1054 17.5196 13.2929 17.7071C13.4804 17.8946 13.7348 18 14 18H18C18.0753 17.9998 18.1503 17.9914 18.2237 17.975L26.5987 16.0488L26.6375 16.0388C26.8932 15.9678 27.166 15.9939 27.4036 16.112C27.6412 16.2301 27.8267 16.4319 27.9245 16.6786C28.0222 16.9253 28.0253 17.1994 27.9331 17.4482C27.8409 17.697 27.6599 17.9029 27.425 18.0263H27.4287ZM20.5 9C20.7471 9.00028 20.9937 8.98021 21.2375 8.94C21.5117 9.75443 22.0133 10.4733 22.6832 11.0117C23.353 11.55 24.1629 11.8854 25.0173 11.978C25.8716 12.0706 26.7346 11.9167 27.5042 11.5344C28.2739 11.1521 28.9179 10.5574 29.3603 9.82063C29.8026 9.08388 30.0248 8.23588 30.0005 7.37688C29.9762 6.51787 29.7064 5.68379 29.2231 4.97325C28.7398 4.2627 28.0631 3.7054 27.2731 3.36724C26.4831 3.02909 25.6127 2.9242 24.765 3.065C24.501 2.28031 24.0256 1.58366 23.3912 1.05172C22.7568 0.519785 21.9879 0.173179 21.1692 0.0500476C20.3505 -0.0730834 19.5137 0.032034 18.7509 0.353832C17.988 0.67563 17.3288 1.20163 16.8456 1.87396C16.3625 2.54628 16.0742 3.33886 16.0125 4.16447C15.9507 4.99008 16.118 5.81672 16.4958 6.55342C16.8735 7.29011 17.4472 7.90831 18.1537 8.33996C18.8602 8.77162 19.6721 9.00001 20.5 9ZM28 7.5C28 7.99446 27.8534 8.4778 27.5787 8.88893C27.304 9.30005 26.9135 9.62048 26.4567 9.8097C25.9999 9.99892 25.4972 10.0484 25.0123 9.95197C24.5273 9.8555 24.0819 9.6174 23.7322 9.26777C23.3826 8.91814 23.1445 8.47268 23.048 7.98773C22.9516 7.50278 23.0011 7.00011 23.1903 6.54329C23.3795 6.08648 23.7 5.69603 24.1111 5.42133C24.5222 5.14662 25.0055 5 25.5 5C26.163 5 26.7989 5.26339 27.2678 5.73223C27.7366 6.20108 28 6.83696 28 7.5ZM20.5 2C21.0454 2.00027 21.5757 2.17888 22.0101 2.5086C22.4446 2.83832 22.7593 3.30105 22.9062 3.82625C22.3941 4.18662 21.9628 4.64992 21.6399 5.18652C21.3171 5.72312 21.1097 6.3212 21.0312 6.9425C20.8567 6.9802 20.6786 6.99947 20.5 7C19.837 7 19.2011 6.73661 18.7322 6.26777C18.2634 5.79893 18 5.16304 18 4.5C18 3.83696 18.2634 3.20108 18.7322 2.73223C19.2011 2.26339 19.837 2 20.5 2Z" fill="black"/>
</svg>
