<svg width="28" height="28" viewBox="0 0 28 28" fill="none" xmlns="http://www.w3.org/2000/svg">
<path d="M27.32 13.5872L25.32 11.5872C24.9808 11.2484 24.5312 11.0427 24.053 11.0076C23.5749 10.9725 23.1 11.1103 22.715 11.3959L16.51 5.19095C16.7958 4.80605 16.9338 4.33129 16.8989 3.85315C16.8641 3.37501 16.6586 2.92531 16.32 2.58595L14.32 0.585948C14.1343 0.400182 13.9138 0.252823 13.6711 0.152285C13.4284 0.0517467 13.1683 0 12.9056 0C12.6429 0 12.3828 0.0517467 12.1401 0.152285C11.8974 0.252823 11.677 0.400182 11.4912 0.585948L3.49123 8.58595C3.30546 8.77167 3.1581 8.99217 3.05756 9.23485C2.95703 9.47753 2.90528 9.73764 2.90528 10.0003C2.90528 10.263 2.95703 10.5231 3.05756 10.7658C3.1581 11.0085 3.30546 11.229 3.49123 11.4147L5.49123 13.4147C5.83051 13.753 6.27997 13.9583 6.75783 13.9931C7.23568 14.028 7.71017 13.8902 8.09498 13.6047L8.99123 14.5009L0.818727 22.6734C0.275777 23.2673 -0.0172058 24.0476 0.000781835 24.852C0.0187695 25.6565 0.346341 26.4229 0.915292 26.9919C1.48424 27.5608 2.25072 27.8884 3.05514 27.9064C3.85956 27.9244 4.63991 27.6314 5.23373 27.0884L13.405 18.9159L14.3012 19.8109C14.0154 20.1958 13.8774 20.6706 13.9123 21.1487C13.9471 21.6269 14.1526 22.0766 14.4912 22.4159L16.4912 24.4159C16.677 24.6017 16.8975 24.7491 17.1401 24.8496C17.3828 24.9501 17.6429 25.0019 17.9056 25.0019C18.1683 25.0019 18.4284 24.9501 18.6711 24.8496C18.9138 24.7491 19.1343 24.6017 19.32 24.4159L27.32 16.4159C27.5057 16.2302 27.6531 16.0097 27.7536 15.767C27.8542 15.5244 27.9059 15.2643 27.9059 15.0016C27.9059 14.7389 27.8542 14.4788 27.7536 14.2361C27.6531 13.9934 27.5057 13.7729 27.32 13.5872ZM6.90498 12.0009L4.90498 10.0009L12.905 2.00095L14.905 4.00095L6.90498 12.0009ZM3.81998 25.6734C3.60919 25.883 3.32406 26.0006 3.02685 26.0006C2.72964 26.0006 2.44451 25.883 2.23373 25.6734C2.02457 25.4627 1.90721 25.1779 1.90721 24.8809C1.90721 24.584 2.02457 24.2992 2.23373 24.0884L10.405 15.9159L11.9912 17.5009L3.81998 25.6734ZM9.52998 12.2084L15.1125 6.62595L21.28 12.7934L15.6987 18.3759L9.52998 12.2084ZM17.905 23.0009L15.905 21.0009L16.405 20.5009L23.405 13.5009L23.905 13.0009L25.905 15.0009L17.905 23.0009Z" fill="black"/>
</svg>
