<svg width="25" height="24" viewBox="0 0 25 24" fill="none" xmlns="http://www.w3.org/2000/svg">
<path d="M3 15H1C0.734784 15 0.48043 15.1054 0.292893 15.2929C0.105357 15.4804 0 15.7348 0 16V23C0 23.2652 0.105357 23.5196 0.292893 23.7071C0.48043 23.8946 0.734784 24 1 24H3C4.19347 24 5.33807 23.5259 6.18198 22.682C7.02589 21.8381 7.5 20.6935 7.5 19.5C7.5 18.3065 7.02589 17.1619 6.18198 16.318C5.33807 15.4741 4.19347 15 3 15ZM3 22H2V17H3C3.66304 17 4.29893 17.2634 4.76777 17.7322C5.23661 18.2011 5.5 18.837 5.5 19.5C5.5 20.163 5.23661 20.7989 4.76777 21.2678C4.29893 21.7366 3.66304 22 3 22ZM24.1912 21.3862C24.3828 21.5696 24.4938 21.8215 24.4996 22.0867C24.5055 22.3518 24.4058 22.6084 24.2225 22.8C23.8743 23.1748 23.4532 23.4746 22.9851 23.6809C22.5169 23.8873 22.0116 23.9959 21.5 24C19.2938 24 17.5 21.9813 17.5 19.5C17.5 17.0187 19.2938 15 21.5 15C22.0116 15.0041 22.5169 15.1127 22.9851 15.3191C23.4532 15.5254 23.8743 15.8252 24.2225 16.2C24.4018 16.3924 24.4982 16.6476 24.4907 16.9105C24.4831 17.1733 24.3724 17.4227 24.1824 17.6045C23.9924 17.7863 23.7384 17.8859 23.4754 17.8818C23.2125 17.8777 22.9617 17.7702 22.7775 17.5825C22.6152 17.4039 22.4182 17.2601 22.1986 17.16C21.979 17.0598 21.7413 17.0054 21.5 17C20.3975 17 19.5 18.125 19.5 19.5C19.5 20.875 20.3975 22 21.5 22C21.7413 21.9946 21.979 21.9402 22.1986 21.84C22.4182 21.7399 22.6152 21.5961 22.7775 21.4175C22.9608 21.2259 23.2128 21.115 23.4779 21.1091C23.743 21.1033 23.9996 21.2029 24.1912 21.3862ZM12.5 15C10.2938 15 8.5 17.0187 8.5 19.5C8.5 21.9813 10.2938 24 12.5 24C14.7062 24 16.5 21.9813 16.5 19.5C16.5 17.0187 14.7062 15 12.5 15ZM12.5 22C11.3975 22 10.5 20.875 10.5 19.5C10.5 18.125 11.3975 17 12.5 17C13.6025 17 14.5 18.125 14.5 19.5C14.5 20.875 13.6025 22 12.5 22ZM2.5 12C2.76522 12 3.01957 11.8946 3.20711 11.7071C3.39464 11.5196 3.5 11.2652 3.5 11V2H14.5V8C14.5 8.26522 14.6054 8.51957 14.7929 8.70711C14.9804 8.89464 15.2348 9 15.5 9H21.5V11C21.5 11.2652 21.6054 11.5196 21.7929 11.7071C21.9804 11.8946 22.2348 12 22.5 12C22.7652 12 23.0196 11.8946 23.2071 11.7071C23.3946 11.5196 23.5 11.2652 23.5 11V8C23.5001 7.86864 23.4743 7.73855 23.4241 7.61715C23.3739 7.49576 23.3003 7.38544 23.2075 7.2925L16.2075 0.2925C16.1146 0.199666 16.0042 0.126052 15.8829 0.0758639C15.7615 0.0256758 15.6314 -0.000102986 15.5 3.09198e-07H3.5C2.96957 3.09198e-07 2.46086 0.210714 2.08579 0.585787C1.71071 0.960859 1.5 1.46957 1.5 2V11C1.5 11.2652 1.60536 11.5196 1.79289 11.7071C1.98043 11.8946 2.23478 12 2.5 12ZM16.5 3.41375L20.0863 7H16.5V3.41375Z" fill="black"/>
</svg>
