<svg width="24" height="26" viewBox="0 0 24 26" fill="none" xmlns="http://www.w3.org/2000/svg">
<path d="M12 4C11.2089 4 10.4355 4.2346 9.77772 4.67412C9.11992 5.11365 8.60723 5.73836 8.30448 6.46927C8.00173 7.20017 7.92252 8.00444 8.07686 8.78036C8.2312 9.55629 8.61216 10.269 9.17157 10.8284C9.73098 11.3878 10.4437 11.7688 11.2196 11.9231C11.9956 12.0775 12.7998 11.9983 13.5307 11.6955C14.2616 11.3928 14.8864 10.8801 15.3259 10.2223C15.7654 9.56448 16 8.79113 16 8C16 6.93913 15.5786 5.92172 14.8284 5.17157C14.0783 4.42143 13.0609 4 12 4ZM12 10C11.6044 10 11.2178 9.8827 10.8889 9.66294C10.56 9.44318 10.3036 9.13082 10.1522 8.76537C10.0009 8.39991 9.96126 7.99778 10.0384 7.60982C10.1156 7.22186 10.3061 6.86549 10.5858 6.58579C10.8655 6.30608 11.2219 6.1156 11.6098 6.03843C11.9978 5.96126 12.3999 6.00087 12.7654 6.15224C13.1308 6.30362 13.4432 6.55996 13.6629 6.88886C13.8827 7.21776 14 7.60444 14 8C14 8.53043 13.7893 9.03914 13.4142 9.41421C13.0391 9.78929 12.5304 10 12 10ZM12 14C11.2089 14 10.4355 14.2346 9.77772 14.6741C9.11992 15.1136 8.60723 15.7384 8.30448 16.4693C8.00173 17.2002 7.92252 18.0044 8.07686 18.7804C8.2312 19.5563 8.61216 20.269 9.17157 20.8284C9.73098 21.3878 10.4437 21.7688 11.2196 21.9231C11.9956 22.0775 12.7998 21.9983 13.5307 21.6955C14.2616 21.3928 14.8864 20.8801 15.3259 20.2223C15.7654 19.5645 16 18.7911 16 18C16 16.9391 15.5786 15.9217 14.8284 15.1716C14.0783 14.4214 13.0609 14 12 14ZM12 20C11.6044 20 11.2178 19.8827 10.8889 19.6629C10.56 19.4432 10.3036 19.1308 10.1522 18.7654C10.0009 18.3999 9.96126 17.9978 10.0384 17.6098C10.1156 17.2219 10.3061 16.8655 10.5858 16.5858C10.8655 16.3061 11.2219 16.1156 11.6098 16.0384C11.9978 15.9613 12.3999 16.0009 12.7654 16.1522C13.1308 16.3036 13.4432 16.56 13.6629 16.8889C13.8827 17.2178 14 17.6044 14 18C14 18.5304 13.7893 19.0391 13.4142 19.4142C13.0391 19.7893 12.5304 20 12 20ZM23 15H21V7H23C23.2652 7 23.5196 6.89464 23.7071 6.70711C23.8946 6.51957 24 6.26522 24 6C24 5.73478 23.8946 5.48043 23.7071 5.29289C23.5196 5.10536 23.2652 5 23 5H21V2C21 1.46957 20.7893 0.960859 20.4142 0.585786C20.0391 0.210714 19.5304 0 19 0H5C4.46957 0 3.96086 0.210714 3.58579 0.585786C3.21071 0.960859 3 1.46957 3 2V5H1C0.734784 5 0.48043 5.10536 0.292893 5.29289C0.105357 5.48043 0 5.73478 0 6C0 6.26522 0.105357 6.51957 0.292893 6.70711C0.48043 6.89464 0.734784 7 1 7H3V15H1C0.734784 15 0.48043 15.1054 0.292893 15.2929C0.105357 15.4804 0 15.7348 0 16C0 16.2652 0.105357 16.5196 0.292893 16.7071C0.48043 16.8946 0.734784 17 1 17H3V24C3 24.5304 3.21071 25.0391 3.58579 25.4142C3.96086 25.7893 4.46957 26 5 26H19C19.5304 26 20.0391 25.7893 20.4142 25.4142C20.7893 25.0391 21 24.5304 21 24V17H23C23.2652 17 23.5196 16.8946 23.7071 16.7071C23.8946 16.5196 24 16.2652 24 16C24 15.7348 23.8946 15.4804 23.7071 15.2929C23.5196 15.1054 23.2652 15 23 15ZM19 24H5V2H19V24Z" fill="black"/>
</svg>
