<svg width="300" height="201" viewBox="0 0 300 201" fill="none" xmlns="http://www.w3.org/2000/svg">
<path d="M90.2514 20.1121H66.0874V53.1805H90.2514V20.1121Z" fill="#F5F5F5"/>
<path d="M84.1273 24.2761H59.9634V57.3445H84.1273V24.2761Z" fill="#E0E0E0"/>
<path d="M198.028 69.4964H197.872H197.404H195.584L188.756 69.5204L165.2 69.6004H165.136V69.5364C164.877 68.651 164.831 67.7171 165.002 66.8106C165.173 65.9041 165.555 65.0508 166.118 64.3201C166.681 63.5895 167.409 63.0021 168.242 62.606C169.075 62.2098 169.99 62.0161 170.912 62.0405L170.828 62.1565C170.679 61.6369 170.617 61.0963 170.644 60.5565C170.671 59.6519 170.935 58.7702 171.408 57.9985C171.88 57.2268 172.546 56.5919 173.34 56.1565C174.112 55.7538 174.971 55.5458 175.841 55.5507C176.712 55.5556 177.568 55.7732 178.336 56.1845L178.212 56.2285C178.638 55.2411 179.265 54.3528 180.052 53.6196C180.838 52.8864 181.769 52.3242 182.784 51.9685C183.718 51.6154 184.714 51.4573 185.712 51.5041C186.709 51.5509 187.687 51.8015 188.584 52.2405C190.201 53.0933 191.473 54.4798 192.184 56.1645C192.833 57.6428 192.987 59.2913 192.624 60.8645L192.56 60.7885C193.488 60.6924 194.426 60.8299 195.288 61.1885C196.055 61.4981 196.745 61.9703 197.312 62.5725C197.569 62.8436 197.784 63.1525 197.948 63.4885C198.093 63.7989 198.207 64.1232 198.288 64.4565C198.425 65.039 198.503 65.6341 198.52 66.2325C198.548 67.054 198.477 67.8759 198.308 68.6804C198.263 68.8903 198.205 69.0974 198.136 69.3004L198.064 69.5004" fill="#EBEBEB"/>
<path d="M260.856 53.7806C259.741 53.9666 258.701 54.4628 257.855 55.2123C257.009 55.9618 256.391 56.9344 256.072 58.0188C255.752 59.1031 255.745 60.2554 256.05 61.3438C256.355 62.4322 256.961 63.4126 257.797 64.173C258.634 64.9333 259.667 65.4429 260.78 65.6432C261.892 65.8436 263.038 65.7267 264.087 65.306C265.137 64.8852 266.046 64.1776 266.712 63.2641C267.378 62.3506 267.773 61.2682 267.852 60.1406L269.504 59.8646L270.4 58.0006L271.688 59.4966L273.756 59.1526L274.64 57.2966L275.928 58.7926L277.704 58.4966L278.244 57.3646L279.044 58.2766L280.08 58.1046L281.216 56.6006L279.268 54.4566L266.968 56.5006C266.332 55.4935 265.412 54.6976 264.324 54.2134C263.237 53.7292 262.029 53.5786 260.856 53.7806ZM257.504 60.4446C257.448 60.108 257.493 59.7624 257.633 59.4514C257.774 59.1403 258.003 58.8778 258.292 58.6969C258.582 58.516 258.918 58.4248 259.259 58.4348C259.6 58.4448 259.931 58.5555 260.209 58.753C260.487 58.9506 260.701 59.2261 260.823 59.5448C260.944 59.8635 260.969 60.2112 260.894 60.5439C260.818 60.8767 260.646 61.1797 260.399 61.4148C260.151 61.6498 259.84 61.8063 259.504 61.8646C259.279 61.9036 259.049 61.8977 258.827 61.8473C258.604 61.7969 258.394 61.703 258.208 61.571C258.022 61.439 257.864 61.2715 257.743 61.0782C257.623 60.8849 257.541 60.6696 257.504 60.4446Z" fill="#EBEBEB"/>
<path d="M254.748 99.7966L255.492 113.437C255.504 113.671 255.605 113.892 255.775 114.054C255.944 114.216 256.169 114.307 256.404 114.309L280.944 114.485C281.065 114.486 281.185 114.463 281.297 114.418C281.409 114.372 281.511 114.306 281.597 114.221C281.683 114.136 281.752 114.035 281.799 113.924C281.846 113.813 281.871 113.693 281.872 113.573L281.948 102.957C281.949 102.835 281.926 102.715 281.88 102.602C281.834 102.49 281.767 102.387 281.681 102.301C281.596 102.215 281.494 102.146 281.382 102.099C281.27 102.053 281.149 102.029 281.028 102.029H265.936C265.815 102.029 265.696 102.005 265.584 101.958C265.473 101.912 265.372 101.843 265.288 101.757L262.684 99.1566C262.513 98.9858 262.282 98.8883 262.04 98.8846L255.676 98.8406C255.551 98.8394 255.428 98.8636 255.313 98.9116C255.198 98.9595 255.094 99.0304 255.007 99.1198C254.92 99.2092 254.852 99.3153 254.808 99.4316C254.763 99.548 254.743 99.6721 254.748 99.7966Z" fill="#EBEBEB"/>
<path d="M281.969 100.429L255.154 100.232L255.036 116.256L281.852 116.452L281.969 100.429Z" fill="#F5F5F5"/>
<path d="M253.012 101.653L254.936 118.373C254.952 118.517 255.02 118.651 255.128 118.748C255.235 118.846 255.375 118.9 255.52 118.901L281.652 119.089C281.801 119.091 281.945 119.036 282.054 118.936C282.164 118.835 282.232 118.697 282.244 118.549L283.684 101.849C283.691 101.767 283.682 101.685 283.655 101.608C283.629 101.53 283.587 101.459 283.531 101.399C283.476 101.339 283.409 101.291 283.334 101.258C283.259 101.225 283.178 101.209 283.096 101.209L253.6 100.993C253.517 100.992 253.434 101.01 253.357 101.043C253.281 101.077 253.212 101.127 253.157 101.19C253.101 101.252 253.059 101.326 253.035 101.406C253.01 101.486 253.002 101.57 253.012 101.653Z" fill="#EBEBEB"/>
<path d="M251.652 175.101C245.432 170.757 244.02 162.701 244.268 155.437C244.308 154.237 244.176 152.949 244.752 151.889C245.328 150.829 246.668 150.101 247.752 150.609C248.652 151.033 249.044 152.081 249.548 152.945C250.218 154.099 251.202 155.04 252.384 155.657C253.156 156.057 254.112 156.301 254.872 155.881C255.916 155.305 256.04 153.861 256.032 152.657C256.016 150.412 256.002 148.169 255.988 145.929C255.915 144.726 256.038 143.518 256.352 142.353C256.728 141.209 257.552 140.149 258.7 139.825C259.848 139.501 261.26 140.165 261.5 141.345C261.545 141.844 261.556 142.345 261.532 142.845C261.568 143.345 261.8 143.897 262.272 144.045C262.744 144.193 263.236 143.845 263.596 143.489C264.84 142.289 265.68 140.709 266.468 139.153C267.256 137.597 268.024 136.001 269.152 134.673C270.28 133.345 271.836 132.297 273.552 132.201C275.268 132.105 277.116 133.169 277.552 134.861C277.988 136.553 276.996 138.281 275.92 139.661C274.32 141.699 272.434 143.495 270.32 144.993C269.915 145.224 269.593 145.577 269.4 146.001C269.14 146.801 269.9 147.601 270.692 147.865C271.588 148.165 272.564 148.069 273.492 148.181C274.42 148.293 275.448 148.705 275.804 149.593C276.296 150.821 275.268 152.113 274.256 152.957C272.231 154.648 269.931 155.978 267.456 156.889C266.568 157.213 265.636 157.497 264.924 158.121C264.212 158.745 263.776 159.825 264.208 160.673C264.64 161.521 265.748 161.793 266.676 161.621C267.604 161.449 268.432 160.945 269.316 160.613C270.972 159.989 273.108 160.101 274.168 161.533C274.491 162.025 274.696 162.586 274.765 163.17C274.835 163.755 274.767 164.347 274.568 164.901C274.165 166.005 273.545 167.017 272.744 167.877C270.12 171.019 266.709 173.409 262.86 174.801C259.024 176.133 255.468 176.493 251.66 175.097" fill="#EBEBEB"/>
<path d="M251.556 180.477C251.895 177.115 252.554 173.793 253.524 170.557C254.729 166.612 256.16 162.739 257.808 158.957L259.084 155.973C259.508 154.993 259.924 154.021 260.392 153.097C261.294 151.322 262.294 149.6 263.388 147.937C264.42 146.337 265.456 144.865 266.436 143.493C267.416 142.121 268.36 140.861 269.264 139.749C270.685 137.978 272.244 136.323 273.928 134.801C274.52 134.265 274.996 133.865 275.32 133.601L275.692 133.297C275.731 133.259 275.776 133.227 275.824 133.201L275.708 133.317C275.616 133.393 275.5 133.501 275.348 133.633C275.032 133.913 274.548 134.325 273.984 134.869C272.33 136.407 270.792 138.067 269.384 139.833C268.488 140.949 267.56 142.213 266.584 143.585C265.608 144.957 264.584 146.441 263.556 148.033C262.473 149.7 261.482 151.425 260.588 153.201C260.124 154.121 259.708 155.081 259.288 156.065L258.008 159.049C256.365 162.833 254.934 166.706 253.72 170.649C252.747 173.871 252.078 177.178 251.72 180.525" fill="#E0E0E0"/>
<path d="M260.457 153.073C260.401 152.905 260.362 152.732 260.341 152.557C260.277 152.225 260.201 151.757 260.117 151.141C259.945 149.941 259.769 148.281 259.577 146.445C259.385 144.609 259.177 142.952 258.997 141.76C258.905 141.164 258.825 140.68 258.769 140.348C258.725 140.177 258.702 140.001 258.701 139.824C258.77 139.988 258.821 140.158 258.853 140.332C258.937 140.656 259.041 141.132 259.153 141.732C259.381 142.932 259.609 144.585 259.797 146.421C259.985 148.257 260.145 149.869 260.273 151.121C260.333 151.685 260.385 152.165 260.425 152.545C260.456 152.719 260.467 152.896 260.457 153.073Z" fill="#E0E0E0"/>
<path d="M275.936 150.177C275.733 150.224 275.525 150.249 275.316 150.253C274.916 150.289 274.344 150.337 273.636 150.417C272.22 150.573 270.268 150.853 268.132 151.253C265.997 151.653 264.073 152.113 262.693 152.477C262.001 152.657 261.445 152.817 261.061 152.925C260.864 152.992 260.662 153.041 260.457 153.073C260.642 152.978 260.836 152.901 261.037 152.841C261.413 152.705 261.965 152.525 262.637 152.325C264.009 151.925 265.929 151.441 268.072 151.033C269.903 150.681 271.751 150.424 273.608 150.261C274.32 150.197 274.896 150.173 275.296 150.165C275.51 150.153 275.724 150.157 275.936 150.177Z" fill="#E0E0E0"/>
<path d="M253.716 170.272C253.672 170.212 253.636 170.148 253.608 170.08C253.536 169.932 253.448 169.744 253.344 169.52C253.116 169.036 252.804 168.32 252.432 167.432C251.684 165.66 250.732 163.18 249.716 160.428C248.7 157.676 247.768 155.184 247.06 153.4C246.712 152.532 246.428 151.8 246.212 151.284L245.988 150.708C245.957 150.641 245.934 150.572 245.92 150.5C245.964 150.559 246 150.624 246.028 150.692L246.292 151.252C246.52 151.736 246.832 152.452 247.204 153.34C247.952 155.112 248.904 157.592 249.92 160.348C250.936 163.104 251.868 165.588 252.576 167.372L253.424 169.488L253.648 170.064C253.679 170.13 253.702 170.2 253.716 170.272Z" fill="#E0E0E0"/>
<path d="M274.284 163.64C274.22 163.677 274.152 163.705 274.08 163.724L273.48 163.924L271.28 164.64C269.42 165.244 266.86 166.104 264.036 167.04C261.212 167.976 258.636 168.84 256.764 169.404C255.828 169.688 255.068 169.908 254.54 170.048L253.932 170.208C253.862 170.23 253.79 170.245 253.716 170.252C253.78 170.214 253.849 170.185 253.92 170.164L254.516 169.968L256.72 169.252C258.58 168.648 261.12 167.788 263.964 166.828C266.808 165.868 269.36 165.032 271.232 164.468C272.168 164.184 272.928 163.964 273.456 163.824L274.068 163.664C274.139 163.649 274.212 163.641 274.284 163.64Z" fill="#E0E0E0"/>
<path d="M276.96 180.494C276.96 180.554 219.452 180.598 148.528 180.598C77.6041 180.598 20.0801 180.554 20.0801 180.494C20.0801 180.434 77.5761 180.402 148.528 180.402C219.48 180.402 276.96 180.438 276.96 180.494Z" fill="#263238"/>
<path d="M247.329 166.531C248.025 167.431 249.277 167.059 249.837 166.459C250.397 165.859 250.601 165.027 250.789 164.227C251.213 162.407 251.641 160.499 251.165 158.691C251.043 158.141 250.773 157.635 250.385 157.227C250.188 157.027 249.942 156.883 249.672 156.809C249.402 156.734 249.116 156.732 248.845 156.803C248.213 157.003 247.849 157.647 247.593 158.259C246.836 160.058 246.49 162.004 246.581 163.955C246.564 164.869 246.825 165.767 247.329 166.531Z" fill="#C29B00"/>
<g opacity="0.2">
<path d="M247.329 166.531C248.025 167.431 249.277 167.059 249.837 166.459C250.397 165.859 250.601 165.027 250.789 164.227C251.213 162.407 251.641 160.499 251.165 158.691C251.043 158.141 250.773 157.635 250.385 157.227C250.188 157.027 249.942 156.883 249.672 156.809C249.402 156.734 249.116 156.732 248.845 156.803C248.213 157.003 247.849 157.647 247.593 158.259C246.836 160.058 246.49 162.004 246.581 163.955C246.564 164.869 246.825 165.767 247.329 166.531Z" fill="black"/>
</g>
<path d="M249.997 171.123C251.064 170.554 252.285 170.342 253.481 170.519C254.131 170.545 254.753 170.787 255.249 171.207C255.709 171.663 255.833 172.499 255.357 172.935C255.046 173.166 254.665 173.283 254.277 173.267C253.349 173.303 252.313 173.191 251.601 173.787C251.201 174.123 250.941 174.667 250.445 174.851C250.195 174.921 249.929 174.909 249.687 174.815C249.444 174.721 249.239 174.551 249.101 174.331C248.838 173.879 248.758 173.344 248.877 172.835C248.919 172.482 249.042 172.144 249.236 171.847C249.431 171.55 249.691 171.302 249.997 171.123Z" fill="#C29B00"/>
<path d="M245.597 167.959C245.909 167.504 246.106 166.98 246.17 166.432C246.234 165.884 246.164 165.329 245.965 164.815C245.55 163.784 244.858 162.888 243.965 162.227C242.956 161.416 241.798 160.81 240.557 160.443C240.077 160.277 239.567 160.217 239.061 160.267C238.811 160.293 238.572 160.38 238.363 160.52C238.154 160.659 237.982 160.846 237.861 161.067C237.545 161.751 237.921 162.539 238.317 163.175C239.01 164.301 239.791 165.371 240.653 166.375C241.349 167.175 242.137 167.975 243.145 168.299C244.153 168.623 245.185 168.531 245.677 167.819" fill="#C29B00"/>
<path d="M247.997 180.579C248.024 180.439 248.036 180.297 248.033 180.155C248.033 179.843 248.069 179.455 248.089 178.991C248.109 178.527 248.161 177.923 248.261 177.287C248.379 176.597 248.552 175.917 248.777 175.255C248.998 174.594 249.31 173.968 249.705 173.395C250.028 172.928 250.452 172.54 250.945 172.259C251.278 172.069 251.638 171.934 252.013 171.859C252.149 171.846 252.283 171.819 252.413 171.779C252.271 171.762 252.128 171.762 251.985 171.779C251.595 171.827 251.217 171.947 250.869 172.131C250.35 172.406 249.902 172.799 249.561 173.279C249.148 173.861 248.823 174.501 248.597 175.179C248.368 175.851 248.198 176.541 248.089 177.243C248.007 177.814 247.96 178.39 247.949 178.967C247.949 179.459 247.949 179.859 247.949 180.131C247.948 180.281 247.964 180.432 247.997 180.579Z" fill="#263238"/>
<path d="M248.029 179.687C248.035 179.621 248.035 179.556 248.029 179.491C248.029 179.343 248.029 179.155 248.001 178.927C247.973 178.443 247.937 177.727 247.921 176.863C247.877 175.119 247.921 172.711 248.061 170.063C248.201 167.415 248.485 165.007 248.749 163.283C248.813 162.851 248.877 162.463 248.937 162.123C248.997 161.783 249.045 161.487 249.097 161.247C249.149 161.007 249.173 160.847 249.201 160.695C249.215 160.63 249.223 160.564 249.225 160.499C249.196 160.558 249.176 160.621 249.165 160.687L249.029 161.235C248.969 161.471 248.909 161.763 248.841 162.103C248.773 162.443 248.697 162.831 248.629 163.263C248.26 165.514 248.011 167.784 247.885 170.063C247.729 172.723 247.721 175.143 247.797 176.887C247.829 177.763 247.885 178.467 247.933 178.955L247.993 179.515C247.998 179.573 248.01 179.631 248.029 179.687Z" fill="#263238"/>
<path d="M247.805 175.035C247.809 174.839 247.797 174.644 247.769 174.451C247.709 173.92 247.622 173.393 247.509 172.871C247.344 172.096 247.133 171.332 246.877 170.583C246.572 169.66 246.202 168.761 245.769 167.891C245.016 166.288 243.978 164.835 242.705 163.603C242.484 163.392 242.25 163.196 242.005 163.015C241.897 162.935 241.801 162.855 241.705 162.791L241.437 162.623C241.274 162.515 241.104 162.418 240.929 162.331C241.519 162.752 242.084 163.207 242.621 163.695C243.85 164.94 244.856 166.386 245.597 167.971C246.028 168.832 246.4 169.722 246.709 170.635C246.968 171.378 247.19 172.133 247.373 172.899C247.529 173.551 247.625 174.099 247.689 174.459C247.712 174.654 247.751 174.846 247.805 175.035Z" fill="#263238"/>
<path d="M59.1514 90.7004H13.9277V120.988H59.1514V90.7004Z" fill="#FAFAFA"/>
<path d="M46.864 109.073H45.664V101.821C45.6349 101.002 45.2894 100.228 44.7004 99.6591C44.1113 99.0906 43.3246 98.7729 42.506 98.7729C41.6874 98.7729 40.9007 99.0906 40.3116 99.6591C39.7225 100.228 39.3771 101.002 39.348 101.821V109.073H38.1479V101.821C38.1823 100.687 38.6569 99.6105 39.4712 98.8205C40.2855 98.0305 41.3754 97.5886 42.51 97.5886C43.6445 97.5886 44.7345 98.0305 45.5488 98.8205C46.363 99.6105 46.8377 100.687 46.872 101.821L46.864 109.073Z" fill="#263238"/>
<path d="M47.1121 105.845H37.8921C37.1432 105.845 36.5361 106.452 36.5361 107.201V112.145C36.5361 112.894 37.1432 113.501 37.8921 113.501H47.1121C47.861 113.501 48.4681 112.894 48.4681 112.145V107.201C48.4681 106.452 47.861 105.845 47.1121 105.845Z" fill="#263238"/>
<path d="M42.5038 109.673C42.3068 109.673 42.1143 109.614 41.9505 109.505C41.7867 109.395 41.659 109.24 41.5836 109.058C41.5082 108.876 41.4885 108.676 41.527 108.482C41.5654 108.289 41.6602 108.112 41.7995 107.972C41.9388 107.833 42.1163 107.738 42.3095 107.7C42.5027 107.661 42.703 107.681 42.885 107.756C43.067 107.832 43.2225 107.96 43.332 108.123C43.4414 108.287 43.4998 108.48 43.4998 108.677C43.4998 108.941 43.3949 109.194 43.2081 109.381C43.0213 109.568 42.768 109.673 42.5038 109.673Z" fill="#455A64"/>
<path d="M42.7759 109.073H42.2319V111.125H42.7759V109.073Z" fill="#455A64"/>
<path d="M36.2397 108.985C37.1036 108.604 37.8366 107.978 38.3479 107.184C38.8592 106.391 39.1262 105.465 39.1157 104.521C39.1157 101.853 37.1157 99.6805 34.6077 99.6685C32.0997 99.6565 30.0718 101.809 30.0598 104.469C30.0389 105.422 30.3025 106.36 30.8169 107.163C31.3312 107.965 32.0731 108.597 32.9477 108.977C25.9998 110.037 26.2958 117.601 26.2958 117.601L42.7717 117.677C42.7717 117.677 43.1477 110.029 36.2397 108.985Z" fill="#C29B00"/>
<path d="M59.1476 120.992C59.1476 120.992 59.1476 120.8 59.1476 120.436C59.1476 120.072 59.1476 119.536 59.1476 118.836C59.1476 117.432 59.1476 115.376 59.1236 112.744C59.1236 107.48 59.0997 99.9201 59.0837 90.7L59.1637 90.784H13.9639L14.0679 90.68C14.0679 101.48 14.0679 111.732 14.0679 120.972L13.9759 120.876L46.5477 120.92L55.8597 120.948H58.3357H58.9757H59.1957H58.3596H55.8997L46.6117 120.976L13.9759 121.02H13.8799V120.928C13.8799 111.688 13.8799 101.428 13.8799 90.636V90.532H13.9879L59.2076 90.556H59.2916V90.636C59.2916 99.8761 59.2596 107.456 59.2476 112.732C59.2476 115.356 59.2477 117.408 59.2276 118.808C59.2276 119.5 59.2276 120.028 59.2276 120.408C59.2276 120.788 59.1476 120.992 59.1476 120.992Z" fill="#263238"/>
<path d="M59.1394 94.3406C59.1394 94.3966 49.0195 94.4446 36.5436 94.4446C24.0677 94.4446 13.9478 94.3966 13.9478 94.3406C13.9478 94.2846 24.0637 94.2366 36.5436 94.2366C49.0235 94.2366 59.1394 94.2846 59.1394 94.3406Z" fill="#263238"/>
<path d="M16.9038 92.5246C16.9038 92.6172 16.8763 92.7077 16.8249 92.7847C16.7735 92.8616 16.7004 92.9216 16.6149 92.957C16.5294 92.9924 16.4353 93.0017 16.3445 92.9837C16.2537 92.9656 16.1703 92.921 16.1048 92.8556C16.0394 92.7901 15.9948 92.7067 15.9768 92.6159C15.9587 92.5252 15.968 92.4311 16.0034 92.3455C16.0388 92.26 16.0988 92.1869 16.1758 92.1355C16.2527 92.0841 16.3432 92.0566 16.4358 92.0566C16.5599 92.0566 16.6789 92.1059 16.7667 92.1937C16.8545 92.2815 16.9038 92.4005 16.9038 92.5246Z" fill="#263238"/>
<path d="M18.436 92.5246C18.436 92.6488 18.3867 92.7678 18.2989 92.8556C18.2112 92.9433 18.0921 92.9926 17.968 92.9926C17.8439 92.9926 17.7248 92.9433 17.6371 92.8556C17.5493 92.7678 17.5 92.6488 17.5 92.5246C17.5 92.4005 17.5493 92.2815 17.6371 92.1937C17.7248 92.1059 17.8439 92.0566 17.968 92.0566C18.0921 92.0566 18.2112 92.1059 18.2989 92.1937C18.3867 92.2815 18.436 92.4005 18.436 92.5246Z" fill="#263238"/>
<path d="M20.08 92.5246C20.08 92.6166 20.0528 92.7066 20.0019 92.7833C19.951 92.86 19.8786 92.9199 19.7938 92.9557C19.709 92.9914 19.6155 93.0014 19.5251 92.9842C19.4346 92.9671 19.3512 92.9237 19.2853 92.8595C19.2194 92.7952 19.1739 92.713 19.1545 92.623C19.1352 92.533 19.1427 92.4393 19.1763 92.3536C19.2099 92.2679 19.268 92.194 19.3434 92.1412C19.4188 92.0883 19.508 92.0589 19.6 92.0566C19.6625 92.0549 19.7247 92.0659 19.7828 92.0887C19.841 92.1115 19.894 92.1457 19.9388 92.1893C19.9835 92.2329 20.019 92.2851 20.0433 92.3426C20.0676 92.4002 20.0801 92.4621 20.08 92.5246Z" fill="#263238"/>
<path d="M59.1476 120.992C59.1476 120.992 59.1476 120.8 59.1476 120.436C59.1476 120.072 59.1476 119.536 59.1476 118.836C59.1476 117.432 59.1476 115.376 59.1236 112.744C59.1236 107.48 59.0997 99.9201 59.0837 90.7L59.1637 90.784H13.9639L14.0679 90.68C14.0679 101.48 14.0679 111.732 14.0679 120.972L13.9759 120.876L46.5477 120.92L55.8597 120.948H58.3357H58.9757H59.1957H58.3596H55.8997L46.6117 120.976L13.9759 121.02H13.8799V120.928C13.8799 111.688 13.8799 101.428 13.8799 90.636V90.532H13.9879L59.2076 90.556H59.2916V90.636C59.2916 99.8761 59.2596 107.456 59.2476 112.732C59.2476 115.356 59.2477 117.408 59.2276 118.808C59.2276 119.5 59.2276 120.028 59.2276 120.408C59.2276 120.788 59.1476 120.992 59.1476 120.992Z" fill="#263238"/>
<path d="M36.2436 122.001C36.1876 122.001 36.1396 121.777 36.1396 121.501C36.1396 121.225 36.1876 121.001 36.2436 121.001C36.2996 121.001 36.3516 121.225 36.3516 121.501C36.3516 121.777 36.3036 122.001 36.2436 122.001Z" fill="#263238"/>
<path d="M36.2439 126.369C36.1424 126.013 36.1072 125.642 36.1399 125.273C36.1069 124.906 36.1422 124.535 36.2439 124.181C36.3505 124.534 36.3872 124.905 36.3519 125.273C36.387 125.642 36.3503 126.014 36.2439 126.369Z" fill="#263238"/>
<path d="M36.2439 130.745C36.1424 130.389 36.1072 130.018 36.1399 129.649C36.1069 129.282 36.1422 128.911 36.2439 128.557C36.3505 128.91 36.3872 129.281 36.3519 129.649C36.387 130.018 36.3503 130.39 36.2439 130.745Z" fill="#263238"/>
<path d="M36.2439 135.121C36.1424 134.765 36.1072 134.393 36.1399 134.025C36.1069 133.658 36.1422 133.287 36.2439 132.933C36.3505 133.286 36.3872 133.657 36.3519 134.025C36.387 134.394 36.3503 134.766 36.2439 135.121Z" fill="#263238"/>
<path d="M36.2439 139.497C36.1424 139.141 36.1072 138.769 36.1399 138.401C36.1069 138.033 36.1422 137.663 36.2439 137.309C36.3505 137.662 36.3872 138.033 36.3519 138.401C36.387 138.769 36.3503 139.142 36.2439 139.497Z" fill="#263238"/>
<path d="M37.2436 142.685C36.9208 142.787 36.5806 142.822 36.2436 142.789L36.1396 142.685V142.309C36.1396 142.189 36.1397 142.081 36.1637 141.989C36.1637 141.809 36.2076 141.697 36.2356 141.697C36.2636 141.697 36.2916 141.809 36.3116 141.989C36.3116 142.081 36.3116 142.189 36.3116 142.309V142.497V142.685C36.2636 142.637 36.4117 142.789 36.2036 142.581C36.5538 142.542 36.9081 142.577 37.2436 142.685Z" fill="#263238"/>
<path d="M41.1759 142.685C40.8584 142.786 40.5236 142.822 40.1919 142.789C39.8616 142.822 39.5281 142.786 39.2119 142.685C39.5281 142.584 39.8616 142.548 40.1919 142.581C40.5236 142.548 40.8584 142.584 41.1759 142.685Z" fill="#263238"/>
<path d="M45.1077 142.685C44.7902 142.786 44.4553 142.822 44.1237 142.789C43.792 142.822 43.4571 142.786 43.1396 142.685C43.4571 142.584 43.792 142.548 44.1237 142.581C44.4553 142.548 44.7902 142.584 45.1077 142.685Z" fill="#263238"/>
<path d="M49.0398 142.685C48.7223 142.786 48.3874 142.822 48.0558 142.789C47.7241 142.822 47.3893 142.786 47.0718 142.685C47.3893 142.584 47.7241 142.548 48.0558 142.581C48.3874 142.548 48.7223 142.584 49.0398 142.685Z" fill="#263238"/>
<path d="M52.9679 142.685C52.3206 142.823 51.6512 142.823 51.0039 142.685C51.6512 142.546 52.3206 142.546 52.9679 142.685Z" fill="#263238"/>
<path d="M56.8996 142.685C56.2522 142.823 55.5829 142.823 54.9355 142.685C55.5829 142.546 56.2522 142.546 56.8996 142.685Z" fill="#263238"/>
<path d="M60.8318 142.685C60.1831 142.824 59.5124 142.824 58.8638 142.685C59.5124 142.546 60.1831 142.546 60.8318 142.685Z" fill="#263238"/>
<path d="M64.7599 142.685C64.1126 142.823 63.4432 142.823 62.7959 142.685C63.4432 142.546 64.1126 142.546 64.7599 142.685Z" fill="#263238"/>
<path d="M68.6915 142.685C68.0442 142.823 67.3749 142.823 66.7275 142.685C67.3749 142.546 68.0442 142.546 68.6915 142.685Z" fill="#263238"/>
<path d="M72.6238 142.685C71.9751 142.824 71.3044 142.824 70.6558 142.685C71.3044 142.546 71.9751 142.546 72.6238 142.685Z" fill="#263238"/>
<path d="M76.5514 142.685C75.9041 142.823 75.2347 142.823 74.5874 142.685C75.2347 142.546 75.9041 142.546 76.5514 142.685Z" fill="#263238"/>
<path d="M79.5195 142.685C79.5195 142.741 79.2955 142.789 79.0195 142.789C78.7435 142.789 78.5195 142.741 78.5195 142.685C78.5195 142.629 78.7435 142.581 79.0195 142.581C79.2955 142.581 79.5195 142.629 79.5195 142.685Z" fill="#263238"/>
<path d="M79.9877 29.3562H55.8237V62.4246H79.9877V29.3562Z" fill="white"/>
<path d="M79.9994 62.4004C79.9994 62.4004 79.9994 62.3444 79.9994 62.2364C79.9994 62.1284 79.9994 61.9684 79.9994 61.7684C79.9994 61.3684 79.9994 60.7444 79.9994 59.9604C79.9994 58.3804 79.9994 56.0764 79.9674 53.1604C79.9674 47.3403 79.9234 39.0883 79.8954 29.3243L80.0034 29.4323L55.8434 29.4603L55.9634 29.3403V62.4084L55.8674 62.3124L73.4154 62.3484L78.2994 62.3724H79.5834H80.0314C80.0314 62.3724 79.8914 62.3724 79.6074 62.3724H78.3394L73.4754 62.4004L55.8754 62.4644H55.7754V62.3644C55.7754 53.0844 55.7474 41.6483 55.7314 29.2963V29.1763H55.8554H80.0154H80.1274V29.2883C80.1274 39.0803 80.0994 47.3603 80.0874 53.1964C80.0874 56.0964 80.0874 58.3964 80.0634 59.9644C80.0634 60.7404 80.0634 61.3364 80.0634 61.7484C80.0634 61.9444 80.0634 62.0964 80.0634 62.2044C80.0486 62.2717 80.0271 62.3373 79.9994 62.4004Z" fill="#263238"/>
<path d="M70.5956 36.0003C70.5956 36.0683 67.9676 36.1203 64.7236 36.1243C61.4796 36.1283 58.8516 36.0763 58.8516 36.0083C58.8516 35.9403 61.4796 35.8843 64.7236 35.8843C67.9676 35.8843 70.5956 35.9323 70.5956 36.0003Z" fill="#263238"/>
<path d="M76.9475 38.8683C76.9475 38.9363 72.8955 38.9923 67.8995 38.9963C62.9036 39.0003 58.8516 38.9483 58.8516 38.8803C58.8516 38.8123 62.9036 38.7563 67.8995 38.7563C72.8955 38.7563 76.9475 38.8003 76.9475 38.8683Z" fill="#263238"/>
<path d="M76.9519 41.8684C76.9519 41.9324 72.8999 41.9884 67.9039 41.9924C62.9079 41.9964 58.856 41.9444 58.856 41.8804C58.856 41.8164 62.9079 41.7564 67.9039 41.7524C72.8999 41.7484 76.9519 41.8004 76.9519 41.8684Z" fill="#263238"/>
<path d="M76.9519 44.8642C76.9519 44.9322 72.9039 44.9882 67.9079 44.9922C62.9119 44.9962 58.8599 44.9442 58.8599 44.8762C58.8599 44.8082 62.9079 44.7522 67.9079 44.7482C72.9079 44.7442 76.9519 44.8002 76.9519 44.8642Z" fill="#263238"/>
<path d="M76.9558 47.8605C76.9558 47.9285 72.9038 47.9845 67.9079 47.9885C62.9119 47.9925 58.8599 47.9405 58.8599 47.8765C58.8599 47.8125 62.9119 47.7525 67.9079 47.7485C72.9038 47.7445 76.9558 47.7965 76.9558 47.8605Z" fill="#263238"/>
<path d="M76.9558 50.8603C76.9558 50.9283 72.9078 50.9843 67.9118 50.9883C62.9158 50.9923 58.8638 50.9403 58.8638 50.8723C58.8638 50.8043 62.9118 50.7483 67.9118 50.7443C72.9118 50.7403 76.9558 50.8003 76.9558 50.8603Z" fill="#263238"/>
<path d="M76.9597 53.8566C76.9597 53.9246 72.9077 53.9806 67.9118 53.9846C62.9158 53.9886 58.8638 53.9366 58.8638 53.8726C58.8638 53.8086 62.9158 53.7486 67.9118 53.7446C72.9077 53.7406 76.9597 53.7926 76.9597 53.8566Z" fill="#263238"/>
<path d="M68.5917 56.8606C68.5917 56.9286 66.4157 56.9846 63.7317 56.9846C61.0477 56.9846 58.8677 56.9366 58.8677 56.8686C58.8677 56.8006 61.0437 56.7446 63.7317 56.7446C66.4197 56.7446 68.5917 56.8006 68.5917 56.8606Z" fill="#263238"/>
<path d="M77.8875 64.8205C80.598 64.8205 82.7954 62.6231 82.7954 59.9124C82.7954 57.2018 80.598 55.0044 77.8875 55.0044C75.1769 55.0044 72.9795 57.2018 72.9795 59.9124C72.9795 62.6231 75.1769 64.8205 77.8875 64.8205Z" fill="#C29B00"/>
<path d="M80.7038 58.0206C80.9118 58.2166 79.9478 59.5886 78.5518 61.0886C78.3238 61.3286 78.1038 61.5566 77.8918 61.7686L77.5518 62.1046L77.2118 61.8206C75.9918 60.7966 75.1919 59.9166 75.3399 59.7246C75.4879 59.5326 76.5398 60.0966 77.8318 61.0286L77.1558 61.0806C77.3518 60.8566 77.5558 60.6166 77.7878 60.3766C79.1998 58.8766 80.4918 57.8246 80.7038 58.0206Z" fill="#E0E0E0"/>
<path d="M66.0757 64.2288C65.937 63.5693 65.937 62.8882 66.0757 62.2288C66.2143 62.8882 66.2143 63.5693 66.0757 64.2288Z" fill="#263238"/>
<path d="M66.0757 68.2285C65.937 67.5691 65.937 66.888 66.0757 66.2285C66.2143 66.888 66.2143 67.5691 66.0757 68.2285Z" fill="#263238"/>
<path d="M66.0757 72.2283C65.937 71.5688 65.937 70.8877 66.0757 70.2283C66.2143 70.8877 66.2143 71.5688 66.0757 72.2283Z" fill="#263238"/>
<path d="M66.0757 76.2288C65.937 75.5693 65.937 74.8882 66.0757 74.2288C66.2143 74.8882 66.2143 75.5693 66.0757 76.2288Z" fill="#263238"/>
<path d="M66.0757 80.2285C65.937 79.5691 65.937 78.888 66.0757 78.2285C66.2143 78.888 66.2143 79.5691 66.0757 80.2285Z" fill="#263238"/>
<path d="M66.0757 84.2288C65.937 83.5693 65.937 82.8882 66.0757 82.2288C66.2143 82.8882 66.2143 83.5693 66.0757 84.2288Z" fill="#263238"/>
<path d="M66.0757 88.2285C65.937 87.5691 65.937 86.888 66.0757 86.2285C66.2143 86.888 66.2143 87.5691 66.0757 88.2285Z" fill="#263238"/>
<path d="M66.0757 92.2283C65.937 91.5688 65.937 90.8877 66.0757 90.2283C66.2143 90.8877 66.2143 91.5688 66.0757 92.2283Z" fill="#263238"/>
<path d="M67.9999 94.2967C67.6769 94.3981 67.3369 94.4335 66.9999 94.4007C66.6879 94.4083 66.3759 94.3869 66.0679 94.3367H66.0239V94.3087C66.0239 94.2647 66.0479 94.2407 66.0599 94.2407C66.0719 94.2407 66.0879 94.2647 66.0999 94.3087L66.0599 94.2727C66.3675 94.2185 66.6798 94.1957 66.9919 94.2047C67.3307 94.167 67.6736 94.1983 67.9999 94.2967Z" fill="#263238"/>
<path d="M71.9995 94.2964C71.3401 94.435 70.659 94.435 69.9995 94.2964C70.659 94.1577 71.3401 94.1577 71.9995 94.2964Z" fill="#263238"/>
<path d="M76 94.2964C75.3405 94.435 74.6595 94.435 74 94.2964C74.6595 94.1577 75.3405 94.1577 76 94.2964Z" fill="#263238"/>
<path d="M80 94.2964C79.3405 94.435 78.6595 94.435 78 94.2964C78.6595 94.1577 79.3405 94.1577 80 94.2964Z" fill="#263238"/>
<path d="M83.9995 94.2964C83.3401 94.435 82.659 94.435 81.9995 94.2964C82.659 94.1577 83.3401 94.1577 83.9995 94.2964Z" fill="#263238"/>
<path d="M150.627 58.1126C150.488 57.4531 150.488 56.772 150.627 56.1125C150.766 56.772 150.766 57.4531 150.627 58.1126Z" fill="#263238"/>
<path d="M150.627 62.1126C150.488 61.4531 150.488 60.772 150.627 60.1125C150.766 60.772 150.766 61.4531 150.627 62.1126Z" fill="#263238"/>
<path d="M150.627 66.1126C150.488 65.4531 150.488 64.772 150.627 64.1125C150.766 64.772 150.766 65.4531 150.627 66.1126Z" fill="#263238"/>
<path d="M150.627 70.1089C150.488 69.4494 150.488 68.7683 150.627 68.1089C150.766 68.7683 150.766 69.4494 150.627 70.1089Z" fill="#263238"/>
<path d="M150.627 74.1126C150.489 73.453 150.489 72.7721 150.627 72.1125C150.765 72.7721 150.765 73.453 150.627 74.1126Z" fill="#263238"/>
<path d="M150.627 78.1128C150.488 77.4533 150.488 76.7723 150.627 76.1128C150.766 76.7723 150.766 77.4533 150.627 78.1128Z" fill="#263238"/>
<path d="M150.627 82.1126C150.488 81.4531 150.488 80.772 150.627 80.1125C150.766 80.772 150.766 81.4531 150.627 82.1126Z" fill="#263238"/>
<path d="M150.627 86.1126C150.488 85.4531 150.488 84.772 150.627 84.1125C150.766 84.772 150.766 85.4531 150.627 86.1126Z" fill="#263238"/>
<path d="M177.791 60.6807H177.555H176.847H174.091L163.755 60.7167L128.079 60.8007H127.999L127.971 60.7087C127.579 59.3679 127.509 57.9535 127.768 56.5808C128.026 55.2081 128.606 53.9159 129.459 52.8096C130.311 51.7033 131.414 50.8142 132.675 50.2148C133.937 49.6154 135.323 49.3227 136.719 49.3606L136.587 49.5326C136.367 48.7524 136.274 47.9421 136.311 47.1325C136.419 44.3725 137.987 41.7085 140.395 40.4765C141.563 39.8658 142.862 39.5502 144.18 39.5572C145.498 39.5642 146.794 39.8935 147.955 40.5165L147.771 40.5845C148.414 39.092 149.36 37.7493 150.549 36.6414C151.738 35.5335 153.145 34.6846 154.679 34.1484C157.623 33.0764 160.887 33.2164 163.455 34.5484C165.897 35.8398 167.817 37.9375 168.887 40.4845C169.87 42.7226 170.106 45.218 169.559 47.6005L169.459 47.4885C170.868 47.3392 172.291 47.5469 173.599 48.0925C174.76 48.5627 175.805 49.2792 176.663 50.1926C177.055 50.6005 177.38 51.0676 177.627 51.5766C177.847 52.0476 178.02 52.5394 178.143 53.0446C178.35 53.9251 178.468 54.8244 178.495 55.7286C178.539 56.9745 178.43 58.2211 178.171 59.4407C178.103 59.7558 178.017 60.0669 177.915 60.3727C177.843 60.5807 177.803 60.6807 177.803 60.6807" fill="#C29B00"/>
<path d="M173.267 46.9805H171.727V37.7164C171.727 36.646 171.302 35.6194 170.545 34.8625C169.788 34.1056 168.761 33.6804 167.691 33.6804C166.62 33.6804 165.594 34.1056 164.837 34.8625C164.08 35.6194 163.655 36.646 163.655 37.7164V46.9805H162.115V37.7164C162.115 36.2376 162.702 34.8193 163.748 33.7736C164.794 32.7279 166.212 32.1404 167.691 32.1404C169.17 32.1404 170.588 32.7279 171.634 33.7736C172.679 34.8193 173.267 36.2376 173.267 37.7164V46.9805Z" fill="#E0E0E0"/>
<path d="M173.959 42.8564H161.423C160.674 42.8564 160.067 43.4636 160.067 44.2125V51.2845C160.067 52.0334 160.674 52.6405 161.423 52.6405H173.959C174.708 52.6405 175.315 52.0334 175.315 51.2845V44.2125C175.315 43.4636 174.708 42.8564 173.959 42.8564Z" fill="#E0E0E0"/>
<path d="M167.691 47.7485C167.438 47.7493 167.191 47.6751 166.98 47.5352C166.77 47.3953 166.606 47.196 166.509 46.9627C166.411 46.7294 166.386 46.4725 166.435 46.2246C166.484 45.9767 166.606 45.749 166.784 45.5703C166.963 45.3916 167.191 45.27 167.439 45.2209C167.687 45.1718 167.943 45.1974 168.177 45.2944C168.41 45.3915 168.609 45.5557 168.749 45.7661C168.889 45.9766 168.963 46.2238 168.963 46.4765C168.963 46.8139 168.829 47.1374 168.59 47.376C168.352 47.6145 168.028 47.7485 167.691 47.7485Z" fill="#455A64"/>
<path d="M168.039 46.9805H167.343V49.6005H168.039V46.9805Z" fill="#455A64"/>
<path d="M261.442 43.9039C262.589 42.837 263.412 41.4688 263.818 39.9559C264.223 38.4429 264.194 36.8464 263.734 35.3492C263.274 33.8519 262.402 32.5144 261.217 31.4898C260.033 30.4652 258.583 29.7949 257.036 29.5556C255.488 29.3164 253.904 29.5179 252.465 30.137C251.026 30.7561 249.791 31.7679 248.9 33.0565C248.01 34.345 247.5 35.8583 247.43 37.423C247.36 38.9877 247.731 40.5406 248.502 41.9039L246.802 43.5039L247.202 46.3039L244.574 45.5999L242.45 47.5999L242.85 50.4L240.214 49.66L238.398 51.352L238.646 53.068L237.046 52.62L235.998 53.6L235.838 56.212L239.73 57.192L252.358 45.4079C253.853 46.0766 255.511 46.2906 257.127 46.0232C258.742 45.7557 260.243 45.0187 261.442 43.9039ZM260.21 33.6479C260.536 33.9944 260.751 34.4296 260.828 34.8984C260.906 35.3672 260.842 35.8485 260.646 36.2812C260.45 36.714 260.129 37.0787 259.726 37.3293C259.322 37.5798 258.853 37.7049 258.378 37.6886C257.903 37.6723 257.444 37.5154 257.058 37.2378C256.672 36.9602 256.378 36.5744 256.212 36.1292C256.046 35.6841 256.015 35.1996 256.125 34.7372C256.234 34.2748 256.478 33.8553 256.826 33.5319C257.291 33.0999 257.908 32.8696 258.542 32.8914C259.177 32.9131 259.776 33.1851 260.21 33.6479Z" fill="#263238"/>
<path d="M260.211 33.648C260.211 33.648 260.055 33.5 259.735 33.304C259.284 33.0305 258.755 32.9151 258.231 32.976C257.805 33.0213 257.401 33.1843 257.063 33.4466C256.725 33.7089 256.466 34.0602 256.316 34.4612C256.167 34.8621 256.132 35.2969 256.215 35.7166C256.299 36.1364 256.497 36.5246 256.789 36.8377C257.081 37.1508 257.454 37.3765 257.867 37.4894C258.28 37.6024 258.716 37.5981 259.126 37.477C259.537 37.356 259.906 37.123 260.191 36.8042C260.477 36.4854 260.668 36.0933 260.743 35.672C260.839 35.1519 260.76 34.6148 260.519 34.144C260.347 33.812 260.195 33.66 260.211 33.648C260.227 33.636 260.255 33.676 260.327 33.752C260.429 33.8597 260.518 33.9792 260.591 34.108C260.874 34.5901 260.98 35.156 260.891 35.708C260.837 36.0321 260.719 36.3422 260.544 36.6201C260.368 36.8979 260.139 37.138 259.87 37.3261C259.6 37.5143 259.296 37.6467 258.975 37.7157C258.654 37.7848 258.322 37.7889 257.999 37.728C257.478 37.6314 257.002 37.3695 256.642 36.9811C256.282 36.5928 256.056 36.0986 255.999 35.572C255.96 35.2447 255.988 34.913 256.079 34.5965C256.171 34.2799 256.325 33.985 256.533 33.7291C256.741 33.4733 256.998 33.2617 257.289 33.1069C257.58 32.9521 257.899 32.8573 258.227 32.828C258.779 32.7744 259.332 32.9159 259.791 33.228C259.914 33.31 260.027 33.4067 260.127 33.516C260.162 33.5553 260.19 33.5998 260.211 33.648Z" fill="#263238"/>
<path d="M261.443 43.9039C261.406 43.9456 261.366 43.9844 261.323 44.0199L260.955 44.3479C260.46 44.7476 259.924 45.0923 259.355 45.3759C258.259 45.8997 257.064 46.18 255.85 46.1972C254.636 46.2145 253.432 45.9684 252.323 45.4759H252.391L239.787 57.28L239.747 57.312H239.699L235.807 56.336L235.727 56.316V56.236C235.775 55.436 235.827 54.532 235.883 53.628V53.588L235.915 53.56L236.975 52.5679L237.015 52.5319H237.071L238.671 52.984L238.543 53.096C238.467 52.5599 238.383 51.9719 238.295 51.3799V51.3239L238.331 51.2879L240.159 49.5839L240.199 49.5439H240.255L242.891 50.2839L242.759 50.3959C242.631 49.5039 242.491 48.5439 242.359 47.5959V47.5439L242.395 47.5039L242.959 46.9799L244.519 45.5239L244.563 45.4839H244.619L247.255 46.2239L247.123 46.3359C246.987 45.3892 246.853 44.4559 246.723 43.5358V43.4838L246.763 43.4478L248.459 41.8478L248.439 41.9718C247.787 40.8082 247.415 39.5083 247.355 38.1758C247.325 37.5285 247.372 36.88 247.495 36.2438C247.608 35.6187 247.795 35.0092 248.051 34.4277C248.687 32.9508 249.735 31.6877 251.068 30.7885C252.401 29.8893 253.965 29.3919 255.573 29.3552C257.181 29.3186 258.765 29.7443 260.138 30.5818C261.512 31.4193 262.615 32.6334 263.319 34.0797C263.98 35.4466 264.256 36.9677 264.119 38.4798C264.028 39.599 263.709 40.6879 263.183 41.6798L263.027 41.9758L262.859 42.2398C262.743 42.4078 262.651 42.5758 262.539 42.7118C262.315 42.9838 262.139 43.2278 261.971 43.3998L261.571 43.7998L261.435 43.9238L261.559 43.7838L261.931 43.3838C262.095 43.2118 262.263 42.9838 262.479 42.6958C262.587 42.5558 262.679 42.3878 262.787 42.2198L262.955 41.9558L263.103 41.6598C263.696 40.5008 264.011 39.2194 264.022 37.9174C264.033 36.6153 263.74 35.3287 263.167 34.1597C262.287 32.3913 260.804 30.996 258.985 30.2263C257.166 29.4567 255.132 29.3635 253.251 29.9637C252.134 30.32 251.106 30.9098 250.235 31.6939C249.364 32.4781 248.67 33.4386 248.199 34.5117C247.95 35.0792 247.769 35.674 247.659 36.2838C247.538 36.9041 247.494 37.5367 247.527 38.1678C247.585 39.4703 247.949 40.7408 248.591 41.8758L248.627 41.9438L248.571 41.9998L246.875 43.5998L246.907 43.5118C247.04 44.4399 247.173 45.3732 247.307 46.3119L247.331 46.4679L247.179 46.4279L244.543 45.6879L244.643 45.6639L243.083 47.1199L242.519 47.6439L242.551 47.5559C242.691 48.5199 242.827 49.4799 242.951 50.3559L242.975 50.5119L242.823 50.4719L240.187 49.7319L240.287 49.7079L238.459 51.4119L238.491 51.3199C238.575 51.9119 238.659 52.4999 238.739 53.036V53.192L238.591 53.152L236.991 52.6999L237.087 52.6759L236.027 53.668L236.059 53.6C236.003 54.504 235.947 55.396 235.895 56.208L235.823 56.108L239.715 57.092H239.627L252.275 45.3359L252.303 45.3079H252.343C253.437 45.7986 254.624 46.0483 255.824 46.04C257.023 46.0317 258.207 45.7657 259.295 45.2599C259.868 44.9875 260.411 44.6549 260.915 44.2679C261.079 44.1359 261.203 44.0319 261.291 43.9558L261.443 43.9039Z" fill="#263238"/>
<path d="M261.162 42.9598C262.309 41.8929 263.132 40.5247 263.537 39.0118C263.943 37.4988 263.914 35.9023 263.454 34.4051C262.994 32.9078 262.122 31.5703 260.937 30.5457C259.753 29.5211 258.303 28.8508 256.755 28.6115C255.208 28.3723 253.624 28.5738 252.185 29.1929C250.746 29.812 249.511 30.8238 248.62 32.1124C247.73 33.4009 247.22 34.9142 247.15 36.4789C247.08 38.0436 247.451 39.5965 248.222 40.9598L246.526 42.5598L246.926 45.3598L244.29 44.6198L242.166 46.6199L242.566 49.4199L239.93 48.6799L238.118 50.3999L238.366 52.1159L236.766 51.6679L235.706 52.6599L235.546 55.2679L239.438 56.2479L252.066 44.4678C253.563 45.1386 255.224 45.3533 256.842 45.0851C258.46 44.8169 259.962 44.0776 261.162 42.9598ZM259.93 32.6998C260.256 33.0461 260.471 33.4814 260.549 33.9503C260.627 34.4193 260.564 34.9009 260.368 35.3339C260.172 35.767 259.852 36.1321 259.448 36.3828C259.044 36.6336 258.575 36.7588 258.1 36.7425C257.624 36.7262 257.165 36.5691 256.779 36.2912C256.393 36.0134 256.099 35.6272 255.933 35.1817C255.767 34.7362 255.737 34.2515 255.847 33.7889C255.957 33.3264 256.202 32.907 256.55 32.5838C257.015 32.1531 257.631 31.9235 258.264 31.9453C258.897 31.967 259.496 32.2382 259.93 32.6998Z" fill="#E0E0E0"/>
<path d="M259.931 32.6998C259.931 32.6998 259.775 32.5558 259.455 32.3598C259.004 32.0846 258.475 31.9678 257.951 32.0278C257.525 32.0738 257.121 32.2374 256.784 32.5001C256.446 32.7628 256.188 33.1143 256.039 33.5153C255.89 33.9163 255.856 34.3508 255.939 34.7703C256.023 35.1898 256.222 35.5777 256.514 35.8904C256.806 36.2032 257.179 36.4285 257.592 36.5411C258.005 36.6538 258.441 36.6493 258.851 36.5282C259.261 36.4071 259.63 36.1742 259.915 35.8555C260.2 35.5368 260.391 35.1449 260.467 34.7238C260.563 34.2046 260.483 33.6681 260.239 33.1998C260.067 32.8678 259.915 32.7158 259.931 32.6998C259.947 32.6838 259.975 32.7318 260.047 32.8038C260.149 32.9114 260.237 33.031 260.311 33.1598C260.594 33.6419 260.7 34.2078 260.611 34.7598C260.558 35.0852 260.441 35.3969 260.266 35.6764C260.092 35.956 259.863 36.1979 259.594 36.3879C259.324 36.5779 259.02 36.7122 258.698 36.783C258.376 36.8537 258.043 36.8594 257.719 36.7998C257.198 36.7012 256.723 36.4381 256.363 36.0493C256.003 35.6605 255.777 35.1665 255.719 34.6398C255.66 34.1511 255.75 33.6559 255.979 33.2198C256.169 32.8511 256.449 32.5364 256.793 32.3049C257.137 32.0735 257.534 31.9327 257.947 31.8958C258.499 31.8445 259.051 31.9859 259.511 32.2958C259.635 32.3765 259.748 32.4734 259.847 32.5838C259.908 32.6585 259.936 32.6971 259.931 32.6998Z" fill="#263238"/>
<path d="M261.163 42.9599C261.125 42.9995 261.085 43.0369 261.043 43.0719L260.679 43.3999C260.184 43.7997 259.648 44.1444 259.079 44.4279C257.983 44.9518 256.788 45.232 255.574 45.2493C254.36 45.2665 253.156 45.0204 252.047 44.5279H252.115L239.495 56.32L239.459 56.356H239.407L235.515 55.38H235.435V55.3C235.483 54.5 235.535 53.592 235.591 52.688V52.648L235.619 52.624C235.947 52.316 236.311 51.972 236.679 51.632L236.723 51.592H236.775L238.375 52.04L238.247 52.152C238.167 51.616 238.083 51.028 237.999 50.436V50.384L238.035 50.344L239.863 48.6439L239.903 48.6039H239.959L242.595 49.34L242.463 49.456C242.335 48.5599 242.195 47.6039 242.063 46.6559V46.6039L242.103 46.5679L242.663 46.0399L244.223 44.5839L244.267 44.5439H244.323L246.959 45.2839L246.827 45.3999C246.691 44.4479 246.555 43.5119 246.427 42.5999V42.5479L246.467 42.5119L248.163 40.9119V41.0359C247.507 39.8733 247.135 38.573 247.075 37.2399C247.021 35.9553 247.259 34.6753 247.771 33.4958C248.407 32.0189 249.455 30.7558 250.788 29.8566C252.121 28.9574 253.685 28.46 255.293 28.4233C256.901 28.3867 258.485 28.8124 259.858 29.6499C261.232 30.4874 262.335 31.7015 263.039 33.1478C263.703 34.5053 263.987 36.0178 263.859 37.5239C263.768 38.6432 263.45 39.7322 262.923 40.7239L262.771 41.0199L262.599 41.2839C262.483 41.4559 262.391 41.6199 262.283 41.7599C262.055 42.0319 261.883 42.2719 261.715 42.4439L261.315 42.8439C261.227 42.9319 261.179 42.9719 261.179 42.9719C261.179 42.9719 261.219 42.9199 261.303 42.8319L261.675 42.4319C261.839 42.2599 262.007 42.0319 262.227 41.7399C262.331 41.5999 262.423 41.4319 262.531 41.2639L262.699 40.9999L262.851 40.7039C263.319 39.7234 263.59 38.6602 263.648 37.575C263.706 36.4898 263.55 35.4037 263.188 34.379C262.826 33.3542 262.266 32.4107 261.54 31.6023C260.814 30.794 259.935 30.1366 258.955 29.6678C257.974 29.199 256.911 28.9279 255.826 28.8699C254.74 28.812 253.654 28.9684 252.63 29.3302C251.605 29.692 250.661 30.252 249.853 30.9785C249.045 31.7049 248.387 32.5834 247.919 33.5638C247.421 34.7173 247.191 35.9687 247.247 37.2239C247.305 38.5251 247.669 39.7943 248.311 40.9279L248.351 40.9999L248.291 41.0519L246.595 42.6519L246.627 42.5639C246.757 43.4919 246.891 44.4253 247.027 45.3639L247.051 45.5239L246.899 45.4799L244.263 44.7399L244.363 44.7159L242.803 46.1719L242.239 46.6999L242.271 46.6079C242.411 47.5719 242.547 48.5319 242.671 49.408L242.695 49.568L242.543 49.524L239.915 48.7999L240.015 48.7759L238.187 50.48L238.219 50.392C238.303 50.984 238.391 51.592 238.467 52.108L238.487 52.26L238.339 52.22L236.739 51.768L236.835 51.744L235.771 52.736L235.803 52.668C235.747 53.572 235.691 54.464 235.639 55.276L235.567 55.176L239.459 56.16L239.371 56.184L251.999 44.4239L252.031 44.3959H252.067C253.322 44.9573 254.695 45.2031 256.067 45.1119C257.085 45.0363 258.082 44.7789 259.011 44.3519C259.576 44.0753 260.112 43.743 260.611 43.3599L260.987 43.0439L261.163 42.9599Z" fill="#263238"/>
<path d="M260.399 42.3079C260.809 41.8681 261.184 41.3959 261.519 40.8959C261.9 40.303 262.188 39.6556 262.375 38.9759C262.631 38.0785 262.713 37.1401 262.615 36.2119C262.501 35.0882 262.124 34.007 261.515 33.0559C260.815 31.9636 259.838 31.0773 258.683 30.4879C258.063 30.1671 257.398 29.9431 256.711 29.8239C256.356 29.7602 255.998 29.7188 255.639 29.6999C255.271 29.6947 254.904 29.7134 254.539 29.7559C253.008 29.9322 251.574 30.5951 250.448 31.6471C249.322 32.699 248.563 34.0845 248.283 35.5999C248.215 35.9607 248.171 36.3254 248.151 36.6919C248.144 37.0525 248.16 37.4132 248.199 37.7719C248.275 38.461 248.453 39.1351 248.727 39.7719C249.233 40.966 250.049 42.003 251.091 42.7759C251.92 43.3874 252.87 43.8165 253.877 44.035C254.884 44.2536 255.926 44.2566 256.935 44.0439C257.626 43.9055 258.292 43.6627 258.911 43.3239C259.432 43.0228 259.93 42.6818 260.399 42.3039C260.399 42.3039 260.371 42.3359 260.315 42.3879L260.055 42.6199C259.916 42.7511 259.766 42.8702 259.607 42.9759C259.397 43.1234 259.178 43.257 258.951 43.3759C258.327 43.7314 257.652 43.989 256.951 44.1399C255.923 44.3677 254.859 44.3746 253.829 44.1602C252.799 43.9457 251.826 43.5148 250.975 42.8959C249.905 42.1073 249.064 41.0484 248.539 39.8279C248.256 39.1779 248.074 38.4887 247.999 37.7839C247.955 37.4176 247.938 37.0487 247.947 36.6799C247.963 36.3025 248.007 35.9268 248.079 35.5559C248.367 33.9984 249.149 32.5748 250.307 31.4947C251.466 30.4145 252.941 29.7349 254.515 29.5559C254.889 29.5126 255.266 29.4952 255.643 29.5039C256.012 29.5221 256.379 29.5649 256.743 29.6319C257.449 29.7581 258.131 29.9915 258.767 30.3239C259.948 30.9317 260.945 31.8446 261.655 32.9679C262.274 33.9423 262.652 35.0502 262.759 36.1999C262.847 37.1423 262.753 38.0929 262.483 38.9999C262.283 39.6862 261.98 40.3378 261.583 40.9319C261.444 41.1513 261.289 41.3599 261.119 41.5559C260.997 41.7008 260.864 41.8347 260.719 41.9559L260.467 42.1999C260.431 42.2839 260.399 42.3119 260.399 42.3079Z" fill="#263238"/>
<path d="M260.059 36.4C260.059 36.4 260.235 36.22 260.459 35.848C260.734 35.4036 260.877 34.8908 260.873 34.3685C260.868 33.8462 260.717 33.3358 260.435 32.896C260.172 32.4869 259.803 32.1566 259.367 31.94C258.892 31.6953 258.353 31.6004 257.823 31.6679C257.251 31.7334 256.715 31.9805 256.294 32.3728C255.873 32.7652 255.589 33.2822 255.483 33.848C255.38 34.374 255.437 34.9187 255.647 35.412C255.797 35.7624 256.018 36.078 256.296 36.3388C256.574 36.5997 256.903 36.8001 257.262 36.9275C257.621 37.0549 258.003 37.1065 258.383 37.079C258.763 37.0516 259.134 36.9457 259.471 36.768C259.871 36.56 260.035 36.368 260.051 36.4C260.067 36.432 260.015 36.452 259.927 36.532C259.806 36.6501 259.672 36.7535 259.527 36.84C259.052 37.1136 258.508 37.2437 257.961 37.2146C257.413 37.1855 256.886 36.9984 256.443 36.676C256 36.3552 255.658 35.9154 255.456 35.4077C255.253 34.9 255.199 34.3453 255.299 33.808C255.412 33.1992 255.717 32.6427 256.17 32.2207C256.623 31.7986 257.2 31.5334 257.815 31.4639C258.197 31.418 258.584 31.4492 258.953 31.5557C259.322 31.6622 259.666 31.8419 259.965 32.0841C260.263 32.3263 260.51 32.626 260.691 32.9654C260.871 33.3048 260.981 33.6771 261.015 34.06C261.075 34.7069 260.908 35.3546 260.543 35.892C260.446 36.0371 260.333 36.1713 260.207 36.292C260.163 36.3351 260.113 36.3715 260.059 36.4Z" fill="#263238"/>
<path d="M238.398 55.788C238.358 55.748 241.198 53.032 244.746 49.724C248.294 46.4159 251.202 43.7639 251.242 43.8079C251.282 43.8519 248.442 46.5639 244.89 49.876C241.338 53.188 238.45 55.832 238.398 55.788Z" fill="#263238"/>
<path d="M226.123 91.9241C225.463 92.0627 224.782 92.0627 224.123 91.9241C224.782 91.7854 225.463 91.7854 226.123 91.9241Z" fill="#263238"/>
<path d="M230.123 91.9241C229.463 92.0627 228.782 92.0627 228.123 91.9241C228.782 91.7854 229.463 91.7854 230.123 91.9241Z" fill="#263238"/>
<path d="M234.123 91.9241C233.463 92.0627 232.782 92.0627 232.123 91.9241C232.782 91.7854 233.463 91.7854 234.123 91.9241Z" fill="#263238"/>
<path d="M238.123 91.9241C237.463 92.0627 236.782 92.0627 236.123 91.9241C236.782 91.7854 237.463 91.7854 238.123 91.9241Z" fill="#263238"/>
<path d="M242.123 91.9241C241.463 92.0627 240.782 92.0627 240.123 91.9241C240.782 91.7854 241.463 91.7854 242.123 91.9241Z" fill="#263238"/>
<path d="M246.123 91.9241C245.463 92.0627 244.782 92.0627 244.123 91.9241C244.782 91.7854 245.463 91.7854 246.123 91.9241Z" fill="#263238"/>
<path d="M249.519 91.3203C249.559 91.3203 249.599 91.5683 249.615 91.9243V92.0003H249.515H249.115C248.778 92.0331 248.438 91.9977 248.115 91.8963C248.438 91.7949 248.778 91.7596 249.115 91.7923H249.515L249.419 91.8883C249.439 91.5683 249.475 91.3203 249.519 91.3203Z" fill="#263238"/>
<path d="M249.519 87.3201C249.657 87.9795 249.657 88.6606 249.519 89.3201C249.38 88.6606 249.38 87.9795 249.519 87.3201Z" fill="#263238"/>
<path d="M249.519 83.3203C249.657 83.9798 249.657 84.6609 249.519 85.3203C249.38 84.6609 249.38 83.9798 249.519 83.3203Z" fill="#263238"/>
<path d="M249.519 79.3201C249.657 79.9795 249.657 80.6606 249.519 81.3201C249.38 80.6606 249.38 79.9795 249.519 79.3201Z" fill="#263238"/>
<path d="M249.519 75.3203C249.657 75.9798 249.657 76.6609 249.519 77.3203C249.38 76.6609 249.38 75.9798 249.519 75.3203Z" fill="#263238"/>
<path d="M249.519 71.3198C249.657 71.9793 249.657 72.6604 249.519 73.3198C249.38 72.6604 249.38 71.9793 249.519 71.3198Z" fill="#263238"/>
<path d="M249.519 67.3201C249.657 67.9795 249.657 68.6606 249.519 69.3201C249.38 68.6606 249.38 67.9795 249.519 67.3201Z" fill="#263238"/>
<path d="M249.519 63.3203C249.657 63.9798 249.657 64.6609 249.519 65.3203C249.38 64.6609 249.38 63.9798 249.519 63.3203Z" fill="#263238"/>
<path d="M249.519 59.3198C249.657 59.9793 249.657 60.6604 249.519 61.3198C249.38 60.6604 249.38 59.9793 249.519 59.3198Z" fill="#263238"/>
<path d="M249.519 55.3201C249.657 55.9795 249.657 56.6606 249.519 57.3201C249.38 56.6606 249.38 55.9795 249.519 55.3201Z" fill="#263238"/>
<path d="M249.519 51.3201C249.657 51.9795 249.657 52.6606 249.519 53.3201C249.38 52.6606 249.38 51.9795 249.519 51.3201Z" fill="#263238"/>
<path d="M219.53 131.794C218.871 131.933 218.19 131.933 217.53 131.794C218.19 131.656 218.871 131.656 219.53 131.794Z" fill="#263238"/>
<path d="M223.53 131.794C222.871 131.933 222.19 131.933 221.53 131.794C222.19 131.656 222.871 131.656 223.53 131.794Z" fill="#263238"/>
<path d="M227.53 131.794C226.871 131.933 226.19 131.933 225.53 131.794C226.19 131.656 226.871 131.656 227.53 131.794Z" fill="#263238"/>
<path d="M231.53 131.794C230.871 131.933 230.19 131.933 229.53 131.794C230.19 131.656 230.871 131.656 231.53 131.794Z" fill="#263238"/>
<path d="M235.53 131.794C234.871 131.933 234.19 131.933 233.53 131.794C234.19 131.656 234.871 131.656 235.53 131.794Z" fill="#263238"/>
<path d="M239.53 131.794C238.871 131.933 238.19 131.933 237.53 131.794C238.19 131.656 238.871 131.656 239.53 131.794Z" fill="#263238"/>
<path d="M243.53 131.794C242.871 131.933 242.19 131.933 241.53 131.794C242.19 131.656 242.871 131.656 243.53 131.794Z" fill="#263238"/>
<path d="M247.53 131.794C246.871 131.933 246.19 131.933 245.53 131.794C246.19 131.656 246.871 131.656 247.53 131.794Z" fill="#263238"/>
<path d="M251.53 131.794C250.871 131.933 250.19 131.933 249.53 131.794C250.19 131.656 250.871 131.656 251.53 131.794Z" fill="#263238"/>
<path d="M255.53 131.794C254.871 131.933 254.19 131.933 253.53 131.794C254.19 131.656 254.871 131.656 255.53 131.794Z" fill="#263238"/>
<path d="M259.158 131.422C259.194 131.422 259.218 131.566 259.238 131.798V131.87H259.15C258.982 131.87 258.75 131.89 258.526 131.89C258.189 131.925 257.849 131.89 257.526 131.786C257.849 131.685 258.189 131.649 258.526 131.682C258.766 131.682 258.982 131.682 259.15 131.706L259.07 131.786C259.094 131.566 259.126 131.422 259.158 131.422Z" fill="#263238"/>
<path d="M259.202 127.422C259.303 127.745 259.336 128.086 259.298 128.422C259.328 128.76 259.289 129.1 259.182 129.422C259.084 129.099 259.052 128.758 259.09 128.422C259.06 128.085 259.098 127.745 259.202 127.422Z" fill="#263238"/>
<path d="M259.238 123.422C259.337 123.746 259.37 124.086 259.334 124.422C259.364 124.76 259.325 125.1 259.218 125.422C259.12 125.099 259.089 124.758 259.126 124.422C259.096 124.085 259.134 123.745 259.238 123.422Z" fill="#263238"/>
<path d="M259.278 119.422C259.377 119.746 259.409 120.086 259.374 120.422C259.402 120.76 259.362 121.1 259.258 121.422C259.16 121.099 259.127 120.759 259.162 120.422C259.134 120.084 259.174 119.745 259.278 119.422Z" fill="#263238"/>
<path d="M246.042 106.886L246.778 120.402C246.789 120.635 246.89 120.854 247.058 121.015C247.226 121.175 247.45 121.266 247.682 121.266L272.006 121.446C272.248 121.447 272.481 121.352 272.654 121.182C272.826 121.012 272.924 120.781 272.926 120.538L273.002 110.018C273.003 109.898 272.98 109.778 272.935 109.667C272.89 109.555 272.823 109.454 272.738 109.368C272.653 109.283 272.552 109.215 272.441 109.168C272.33 109.122 272.211 109.098 272.09 109.098H257.13C256.888 109.098 256.657 109.001 256.486 108.83L253.906 106.25C253.822 106.165 253.723 106.098 253.613 106.052C253.503 106.006 253.385 105.982 253.266 105.982L246.958 105.934C246.835 105.934 246.713 105.959 246.599 106.007C246.486 106.055 246.383 106.126 246.297 106.215C246.212 106.304 246.145 106.409 246.101 106.524C246.057 106.64 246.037 106.763 246.042 106.886Z" fill="#C29B00"/>
<path d="M273.02 107.508L246.44 107.313L246.324 123.193L272.903 123.388L273.02 107.508Z" fill="#F5F5F5"/>
<path d="M244.318 108.722L246.226 125.298C246.241 125.441 246.308 125.574 246.416 125.67C246.523 125.766 246.662 125.819 246.806 125.818L272.706 126.01C272.854 126.012 272.998 125.957 273.107 125.856C273.216 125.756 273.283 125.618 273.294 125.47L274.722 108.918C274.729 108.837 274.719 108.756 274.692 108.679C274.666 108.603 274.624 108.532 274.569 108.472C274.514 108.413 274.448 108.365 274.374 108.332C274.299 108.299 274.219 108.282 274.138 108.282L244.906 108.07C244.823 108.07 244.741 108.087 244.665 108.12C244.589 108.154 244.521 108.203 244.466 108.264C244.41 108.326 244.368 108.398 244.343 108.477C244.317 108.556 244.309 108.64 244.318 108.722Z" fill="#C29B00"/>
<path d="M222.606 82.9485H88.7303C85.5116 82.9485 82.9023 85.5578 82.9023 88.7765V173.361C82.9023 176.579 85.5116 179.189 88.7303 179.189H222.606C225.825 179.189 228.434 176.579 228.434 173.361V88.7765C228.434 85.5578 225.825 82.9485 222.606 82.9485Z" fill="#263238"/>
<path d="M76.7983 172.073H234.491V173.373C234.491 175.262 233.741 177.073 232.406 178.408C231.07 179.743 229.259 180.493 227.371 180.493H83.9384C82.05 180.493 80.239 179.743 78.9037 178.408C77.5685 177.073 76.8183 175.262 76.8183 173.373V172.073H76.7983Z" fill="#263238"/>
<path d="M224.123 86.7725H86.8105V168.045H224.123V86.7725Z" fill="#455A64"/>
<path d="M141.323 172.073L143.279 175.185H170.811L172.631 172.073H141.323Z" fill="#455A64"/>
<path d="M220.271 89.5247H90.9462C90.2238 89.5247 89.6382 90.1103 89.6382 90.8327V166.477C89.6382 167.199 90.2238 167.785 90.9462 167.785H220.271C220.994 167.785 221.579 167.199 221.579 166.477V90.8327C221.579 90.1103 220.994 89.5247 220.271 89.5247Z" fill="#EBEBEB"/>
<path d="M221.579 95.2605H89.6382V167.788H221.579V95.2605Z" fill="#FAFAFA"/>
<path d="M100.458 92.5487C100.458 92.7577 100.396 92.962 100.28 93.1358C100.164 93.3095 99.9986 93.4449 99.8054 93.5247C99.6122 93.6045 99.3997 93.6252 99.1947 93.5841C98.9897 93.543 98.8016 93.4421 98.6541 93.294C98.5065 93.1459 98.4063 92.9573 98.366 92.7522C98.3257 92.5471 98.3472 92.3347 98.4277 92.1418C98.5083 91.9489 98.6442 91.7843 98.8184 91.6687C98.9926 91.5532 99.1972 91.4919 99.4062 91.4927C99.5447 91.4927 99.6818 91.52 99.8097 91.5731C99.9376 91.6263 100.054 91.7041 100.151 91.8022C100.249 91.9003 100.327 92.0168 100.379 92.1449C100.432 92.273 100.459 92.4102 100.458 92.5487Z" fill="#263238"/>
<path d="M94.0744 92.5487C94.0744 92.7575 94.0125 92.9617 93.8964 93.1354C93.7804 93.309 93.6155 93.4444 93.4225 93.5243C93.2296 93.6042 93.0172 93.6251 92.8124 93.5844C92.6075 93.5436 92.4194 93.4431 92.2717 93.2954C92.124 93.1477 92.0234 92.9595 91.9827 92.7547C91.9419 92.5499 91.9629 92.3375 92.0428 92.1446C92.1227 91.9516 92.2581 91.7867 92.4317 91.6706C92.6054 91.5546 92.8095 91.4927 93.0184 91.4927C93.2985 91.4927 93.5671 91.6039 93.7651 91.802C93.9631 92 94.0744 92.2686 94.0744 92.5487Z" fill="#263238"/>
<path d="M97.1384 92.5487C97.1384 92.7577 97.0763 92.962 96.9601 93.1358C96.8439 93.3095 96.6787 93.4449 96.4856 93.5247C96.2924 93.6045 96.0798 93.6252 95.8749 93.5841C95.6699 93.543 95.4818 93.4421 95.3343 93.294C95.1867 93.1459 95.0865 92.9573 95.0462 92.7522C95.0059 92.5471 95.0274 92.3347 95.1079 92.1418C95.1884 91.9489 95.3244 91.7843 95.4986 91.6687C95.6728 91.5532 95.8773 91.4919 96.0864 91.4927C96.2249 91.4927 96.362 91.52 96.4899 91.5731C96.6178 91.6263 96.7339 91.7041 96.8317 91.8022C96.9294 91.9003 97.0068 92.0168 97.0594 92.1449C97.1121 92.273 97.1389 92.4102 97.1384 92.5487Z" fill="#263238"/>
<path d="M227.197 172.073C227.197 172.125 194.898 172.169 155.062 172.169C115.226 172.169 82.9146 172.125 82.9146 172.073C82.9146 172.021 115.21 171.977 155.062 171.977C194.914 171.977 227.197 172.021 227.197 172.073Z" fill="#455A64"/>
<path d="M128.89 131.797H98.7822V133.813H128.89V131.797Z" fill="#E0E0E0"/>
<path d="M167.78 103.833H137.671V105.849H167.78V103.833Z" fill="#E0E0E0"/>
<path d="M212.559 111.332C212.559 111.384 195.795 111.428 175.115 111.428C154.435 111.428 137.671 111.384 137.671 111.332C137.671 111.28 154.435 111.24 175.115 111.24C195.795 111.24 212.559 111.28 212.559 111.332Z" fill="#E0E0E0"/>
<path d="M212.559 115.733C212.559 115.785 195.795 115.825 175.115 115.825C154.435 115.825 137.671 115.785 137.671 115.733C137.671 115.681 154.435 115.637 175.115 115.637C195.795 115.637 212.559 115.681 212.559 115.733Z" fill="#E0E0E0"/>
<path d="M212.559 120.128C212.559 120.18 195.795 120.224 175.115 120.224C154.435 120.224 137.671 120.18 137.671 120.128C137.671 120.076 154.435 120.036 175.115 120.036C195.795 120.036 212.559 120.076 212.559 120.128Z" fill="#E0E0E0"/>
<path d="M212.559 124.529C212.559 124.581 195.795 124.621 175.115 124.621C154.435 124.621 137.671 124.581 137.671 124.529C137.671 124.477 154.435 124.433 175.115 124.433C195.795 124.433 212.559 124.477 212.559 124.529Z" fill="#E0E0E0"/>
<path d="M212.559 128.925C212.559 128.977 195.795 129.021 175.115 129.021C154.435 129.021 137.671 128.977 137.671 128.925C137.671 128.873 154.435 128.833 175.115 128.833C195.795 128.833 212.559 128.873 212.559 128.925Z" fill="#E0E0E0"/>
<path d="M166.903 133.325C166.903 133.377 160.359 133.417 152.287 133.417C144.215 133.417 137.671 133.377 137.671 133.325C137.671 133.273 144.215 133.229 152.287 133.229C160.359 133.229 166.903 133.273 166.903 133.325Z" fill="#E0E0E0"/>
<path d="M212 141.857C212 141.909 200.98 141.953 187.392 141.953C173.804 141.953 162.78 141.909 162.78 141.857C162.78 141.805 173.796 141.765 187.392 141.765C200.988 141.765 212 141.805 212 141.857Z" fill="#E0E0E0"/>
<path d="M212 146.529C212 146.581 200.98 146.621 187.392 146.621C173.804 146.621 162.78 146.581 162.78 146.529C162.78 146.477 173.796 146.433 187.392 146.433C200.988 146.433 212 146.477 212 146.529Z" fill="#E0E0E0"/>
<path d="M212 151.2C212 151.252 200.98 151.292 187.392 151.292C173.804 151.292 162.8 151.248 162.8 151.2C162.8 151.152 173.816 151.104 187.412 151.104C201.008 151.104 212 151.144 212 151.2Z" fill="#E0E0E0"/>
<path d="M212 155.865C212 155.917 200.98 155.957 187.392 155.957C173.804 155.957 162.78 155.917 162.78 155.865C162.78 155.813 173.796 155.769 187.392 155.769C200.988 155.769 212 155.813 212 155.865Z" fill="#E0E0E0"/>
<path d="M128.966 141.413C128.966 141.465 122.398 141.505 114.294 141.505C106.191 141.505 99.6226 141.465 99.6226 141.413C99.6226 141.361 106.191 141.317 114.294 141.317C122.398 141.317 128.966 141.361 128.966 141.413Z" fill="#E0E0E0"/>
<path d="M128.966 145.077C128.966 145.129 122.398 145.173 114.294 145.173C106.191 145.173 99.6226 145.129 99.6226 145.077C99.6226 145.025 106.191 144.985 114.294 144.985C122.398 144.985 128.966 145.025 128.966 145.077Z" fill="#E0E0E0"/>
<path d="M128.966 148.745C128.966 148.797 122.398 148.841 114.294 148.841C106.191 148.841 99.6226 148.797 99.6226 148.745C99.6226 148.693 106.191 148.649 114.294 148.649C122.398 148.649 128.966 148.693 128.966 148.745Z" fill="#E0E0E0"/>
<path d="M128.966 152.401C128.966 152.453 122.398 152.493 114.294 152.493C106.191 152.493 99.6226 152.453 99.6226 152.401C99.6226 152.349 106.191 152.305 114.294 152.305C122.398 152.305 128.966 152.361 128.966 152.401Z" fill="#E0E0E0"/>
<path d="M128.966 156.076C128.966 156.128 122.398 156.172 114.294 156.172C106.191 156.172 99.6226 156.128 99.6226 156.076C99.6226 156.024 106.191 155.984 114.294 155.984C122.398 155.984 128.966 156.024 128.966 156.076Z" fill="#E0E0E0"/>
<path d="M159.011 139.633H137.651V160.301H159.011V139.633Z" fill="#F5F5F5"/>
<path d="M139.308 158.529L145.22 147.893L150.052 154.693L152.992 151.081L157.36 158.529H139.308Z" fill="#EBEBEB"/>
<path d="M152.112 145.825C152.113 146.13 152.023 146.428 151.854 146.682C151.685 146.936 151.444 147.134 151.163 147.251C150.881 147.368 150.571 147.399 150.272 147.339C149.973 147.28 149.698 147.133 149.483 146.918C149.267 146.702 149.12 146.427 149.061 146.128C149.002 145.829 149.033 145.519 149.15 145.238C149.267 144.956 149.465 144.716 149.719 144.547C149.973 144.378 150.271 144.288 150.576 144.289C150.983 144.289 151.374 144.451 151.662 144.739C151.95 145.027 152.112 145.417 152.112 145.825Z" fill="#EBEBEB"/>
<path d="M157.36 158.589C157.356 158.56 157.356 158.53 157.36 158.501C157.36 158.441 157.36 158.361 157.36 158.261C157.36 158.041 157.36 157.733 157.36 157.333C157.36 156.513 157.36 155.333 157.336 153.821C157.336 150.801 157.312 146.505 157.292 141.341L157.38 141.429H139.331L139.431 141.329V146.001C139.431 147.521 139.431 149.009 139.431 150.453C139.431 153.349 139.431 156.085 139.431 158.605L139.343 158.513L152.392 158.561L156.072 158.581H157.048H157.304H157.392H157.068H156.108L152.448 158.601L139.343 158.649H139.251V158.561C139.251 156.041 139.251 153.305 139.251 150.409C139.251 148.965 139.251 147.477 139.251 145.957V141.349L139.355 141.245H157.404H157.492V141.329C157.472 146.529 157.456 150.833 157.448 153.865C157.448 155.361 157.428 156.541 157.424 157.357C157.424 157.749 157.424 158.053 157.424 158.269C157.424 158.365 157.424 158.441 157.424 158.501C157.405 158.532 157.384 158.562 157.36 158.589Z" fill="#EBEBEB"/>
<path d="M128.323 100.393H99.3506V128.425H128.323V100.393Z" fill="#F5F5F5"/>
<path d="M101.594 126.025L109.61 111.601L116.166 120.821L120.15 115.925L126.074 126.025H101.594Z" fill="#E0E0E0"/>
<path d="M118.96 108.801C118.96 109.213 118.837 109.616 118.608 109.958C118.379 110.301 118.054 110.568 117.673 110.726C117.292 110.884 116.873 110.925 116.469 110.845C116.065 110.764 115.693 110.566 115.402 110.274C115.11 109.983 114.912 109.611 114.832 109.207C114.751 108.803 114.792 108.384 114.95 108.003C115.108 107.622 115.375 107.297 115.718 107.068C116.06 106.839 116.463 106.717 116.876 106.717C117.428 106.717 117.958 106.936 118.349 107.327C118.74 107.718 118.96 108.248 118.96 108.801Z" fill="#E0E0E0"/>
<path d="M126.075 126.105C126.075 126.105 126.075 126.065 126.075 125.989C126.075 125.913 126.075 125.797 126.075 125.661C126.075 125.365 126.075 124.945 126.075 124.401C126.075 123.289 126.055 121.681 126.043 119.641C126.043 115.545 126.007 109.717 125.983 102.717L126.099 102.833L101.623 102.853C101.591 102.881 101.883 102.593 101.759 102.721V109.009C101.759 111.07 101.759 113.083 101.759 115.049C101.759 118.973 101.759 122.685 101.759 126.101L101.639 125.981L119.339 126.041L124.331 126.073H125.659H125.999H126.119H126.015H125.683H124.383L119.419 126.105L101.639 126.165H101.519V126.045C101.519 122.629 101.519 118.917 101.519 114.993C101.519 113.03 101.519 111.017 101.519 108.953V102.725C101.395 102.845 101.687 102.549 101.659 102.581L126.135 102.601H126.255V102.721C126.231 109.753 126.211 115.609 126.195 119.721C126.195 121.749 126.171 123.349 126.163 124.453C126.163 124.985 126.163 125.401 126.163 125.693C126.163 125.825 126.163 125.925 126.163 126.005C126.142 126.045 126.111 126.079 126.075 126.105Z" fill="#E0E0E0"/>
<path d="M132.207 111.045L133.639 113.945L136.839 114.409L134.523 116.669L135.067 119.857L132.207 118.353L129.343 119.857L129.891 116.669L127.575 114.409L130.775 113.945L132.207 111.045Z" fill="#C29B00"/>
<path d="M142.288 100.965L143.72 103.865L146.92 104.329L144.604 106.589L145.152 109.777L142.288 108.269L139.424 109.777L139.972 106.589L137.656 104.329L140.856 103.865L142.288 100.965Z" fill="#C29B00"/>
<path d="M155.76 97.0085L157.192 99.9086L160.392 100.373L158.076 102.629L158.624 105.817L155.76 104.313L152.896 105.817L153.444 102.629L151.128 100.373L154.328 99.9086L155.76 97.0085Z" fill="#C29B00"/>
<path d="M169.704 101.061L171.136 103.961L174.336 104.425L172.02 106.681L172.568 109.869L169.704 108.365L166.84 109.869L167.388 106.681L165.072 104.425L168.272 103.961L169.704 101.061Z" fill="#C29B00"/>
<path d="M179.312 110.668L180.744 113.568L183.944 114.032L181.628 116.292L182.176 119.476L179.312 117.972L176.452 119.476L176.996 116.292L174.68 114.032L177.88 113.568L179.312 110.668Z" fill="#C29B00"/>
<path d="M182.8 124.613L184.232 127.513L187.432 127.977L185.116 130.233L185.66 133.421L182.8 131.917L179.936 133.421L180.484 130.233L178.168 127.977L181.368 127.513L182.8 124.613Z" fill="#C29B00"/>
<path d="M179.408 138.461L180.84 141.361L184.04 141.825L181.724 144.085L182.272 147.273L179.408 145.765L176.544 147.273L177.092 144.085L174.776 141.825L177.976 141.361L179.408 138.461Z" fill="#C29B00"/>
<path d="M169.201 148.073L170.633 150.973L173.833 151.437L171.517 153.693L172.065 156.881L169.201 155.377L166.341 156.881L166.885 153.693L164.573 151.437L167.773 150.973L169.201 148.073Z" fill="#C29B00"/>
<path d="M155.488 152.033L156.92 154.933L160.12 155.397L157.804 157.657L158.352 160.841L155.488 159.337L152.628 160.841L153.172 157.657L150.856 155.397L154.056 154.933L155.488 152.033Z" fill="#C29B00"/>
<path d="M142.391 148.077L143.823 150.977L147.023 151.441L144.707 153.697L145.255 156.885L142.391 155.381L139.531 156.885L140.075 153.697L137.759 151.441L140.963 150.977L142.391 148.077Z" fill="#C29B00"/>
<path d="M132.031 138.209L133.459 141.109L136.659 141.577L134.347 143.833L134.891 147.021L132.031 145.517L129.167 147.021L129.715 143.833L127.399 141.577L130.599 141.109L132.031 138.209Z" fill="#C29B00"/>
<path d="M128.543 124.629L129.975 127.529L133.175 127.993L130.859 130.253L131.407 133.437L128.543 131.933L125.679 133.437L126.227 130.253L123.911 127.993L127.111 127.529L128.543 124.629Z" fill="#C29B00"/>
<path d="M165.636 134.577H162.836V119.337C162.836 117.612 162.151 115.957 160.931 114.737C159.711 113.518 158.057 112.832 156.332 112.832C154.607 112.832 152.953 113.518 151.733 114.737C150.513 115.957 149.828 117.612 149.828 119.337V134.577H147.028V119.337C147.028 118.115 147.268 116.905 147.736 115.776C148.204 114.647 148.889 113.622 149.753 112.758C150.617 111.894 151.643 111.208 152.771 110.741C153.9 110.273 155.11 110.032 156.332 110.032C157.554 110.032 158.763 110.273 159.892 110.741C161.021 111.208 162.047 111.894 162.911 112.758C163.775 113.622 164.46 114.647 164.928 115.776C165.395 116.905 165.636 118.115 165.636 119.337V134.577Z" fill="#263238"/>
<path d="M166.547 127.797H146.115C144.832 127.797 143.791 128.837 143.791 130.121V141.565C143.791 142.849 144.832 143.889 146.115 143.889H166.547C167.831 143.889 168.871 142.849 168.871 141.565V130.121C168.871 128.837 167.831 127.797 166.547 127.797Z" fill="#C29B00"/>
<path d="M158.428 133.745C158.428 134.159 158.305 134.565 158.075 134.909C157.845 135.254 157.517 135.523 157.134 135.681C156.751 135.84 156.33 135.882 155.923 135.801C155.517 135.72 155.143 135.52 154.85 135.227C154.557 134.934 154.357 134.56 154.277 134.154C154.196 133.747 154.237 133.326 154.396 132.943C154.555 132.56 154.823 132.232 155.168 132.002C155.513 131.772 155.918 131.649 156.332 131.649C156.888 131.649 157.421 131.87 157.814 132.263C158.208 132.656 158.428 133.189 158.428 133.745Z" fill="#263238"/>
<path d="M156.905 134.577H155.761V138.889H156.905V134.577Z" fill="#263238"/>
<path d="M145.128 142.361C145.072 142.361 145.024 139.677 145.024 136.361C145.024 133.045 145.072 130.361 145.128 130.361C145.184 130.361 145.232 133.045 145.232 136.361C145.232 139.677 145.2 142.361 145.128 142.361Z" fill="#FAFAFA"/>
<path d="M154.692 136.433C154.692 136.433 154.592 136.401 154.444 136.293C154.237 136.137 154.055 135.951 153.904 135.741C153.645 135.395 153.465 134.997 153.376 134.575C153.288 134.152 153.294 133.716 153.394 133.296C153.494 132.876 153.684 132.483 153.953 132.145C154.222 131.807 154.561 131.532 154.948 131.341C155.178 131.221 155.425 131.137 155.68 131.093C155.772 131.073 155.868 131.073 155.96 131.093C155.637 131.202 155.323 131.336 155.02 131.493C154.665 131.688 154.354 131.956 154.108 132.279C153.862 132.602 153.687 132.973 153.593 133.368C153.499 133.763 153.489 134.173 153.563 134.572C153.638 134.971 153.795 135.35 154.024 135.685C154.226 135.951 154.45 136.201 154.692 136.433Z" fill="#FAFAFA"/>
<path d="M68.108 120.652C67.8258 121.567 67.8483 122.55 68.172 123.452C68.5001 124.346 68.9239 125.201 69.436 126.004C70.096 124.406 70.6636 122.771 71.136 121.108C71.2118 120.933 71.2431 120.742 71.2271 120.552C71.211 120.362 71.1481 120.179 71.044 120.02C70.9339 119.928 70.8056 119.862 70.6677 119.824C70.5297 119.786 70.3853 119.778 70.244 119.8C69.3916 119.852 68.5833 120.196 67.956 120.776" fill="#263238"/>
<path d="M32.836 165.521L26.292 180.477H35.3L41.716 165.401L32.836 165.521Z" fill="#263238"/>
<path d="M71.748 180.301C80.576 177.377 74.524 165.701 74.524 165.701L35.9359 169.329C34.4542 169.329 33.0328 169.916 31.9832 170.962C30.9336 172.008 30.3412 173.427 30.3359 174.909C30.3359 176.394 30.9259 177.819 31.9761 178.869C33.0264 179.919 34.4507 180.509 35.9359 180.509L71.784 180.317" fill="#455A64"/>
<path d="M80.5243 180.492C89.1283 177.588 83.4563 165.692 83.4563 165.692L45.8562 169.236C42.1842 169.284 40.3882 171.056 40.3882 174.808C40.3882 177.888 41.5322 180.488 45.8442 180.408L80.5403 180.496" fill="#455A64"/>
<path d="M72.0476 167.669H71.9436H71.6276L70.4276 167.717L66.0036 167.937L51.4077 168.737C50.6917 168.773 49.9877 168.833 49.2957 168.845C48.6037 168.857 47.9117 168.885 47.2397 168.925C46.5677 168.965 45.9077 169.017 45.2397 169.085C44.5977 169.132 43.9652 169.266 43.3597 169.485C42.7738 169.704 42.2409 170.045 41.7958 170.485C41.3726 170.918 41.0479 171.438 40.8438 172.009C40.6513 172.541 40.5172 173.092 40.4438 173.653C40.3726 174.168 40.3379 174.688 40.3398 175.209C40.325 176.107 40.4938 176.998 40.8358 177.829C41.0958 178.447 41.4972 178.995 42.0077 179.429C42.3199 179.697 42.6813 179.902 43.0717 180.033C43.3357 180.117 43.3437 180.089 43.0717 179.993C42.6935 179.847 42.3441 179.636 42.0397 179.369C41.5515 178.935 41.1697 178.394 40.9238 177.789C40.5986 176.971 40.4421 176.096 40.4638 175.217C40.4661 174.704 40.5048 174.192 40.5798 173.685C40.6531 173.138 40.7873 172.602 40.9798 172.085C41.1742 171.539 41.487 171.043 41.8957 170.633C42.3252 170.211 42.8391 169.885 43.4037 169.677C43.9977 169.471 44.6165 169.346 45.2437 169.305C45.8837 169.241 46.5437 169.189 47.2157 169.153C47.8877 169.117 48.5677 169.085 49.2637 169.073C49.9597 169.061 50.6637 169.005 51.3757 168.969L65.9996 168.085L70.4236 167.801L71.6236 167.713L71.9356 167.685C71.9736 167.687 72.0117 167.682 72.0476 167.669Z" fill="#263238"/>
<path d="M80.5444 171.353C80.4532 171.421 80.3502 171.473 80.2404 171.505C79.9457 171.611 79.6372 171.675 79.3244 171.693C78.8034 171.732 78.2801 171.657 77.7914 171.472C77.3027 171.288 76.8604 170.998 76.4958 170.624C76.1311 170.25 75.853 169.8 75.681 169.307C75.509 168.813 75.4474 168.288 75.5004 167.769C75.5243 167.457 75.5958 167.151 75.7124 166.861C75.7441 166.751 75.7971 166.649 75.8684 166.561C75.7582 166.96 75.6846 167.368 75.6483 167.781C75.616 168.275 75.688 168.772 75.8599 169.237C76.0317 169.702 76.2994 170.126 76.6457 170.481C76.992 170.836 77.4091 171.114 77.8699 171.297C78.3307 171.48 78.8249 171.565 79.3204 171.545C79.7337 171.521 80.1437 171.457 80.5444 171.353Z" fill="#263238"/>
<path d="M61.408 147.7L57.836 159.916L44.624 161.332V163.676L64.04 163.944L66.68 148.04L61.408 147.7Z" fill="#FFBE9D"/>
<path d="M78.6357 134.94C80.9797 134.94 87.3277 136.14 87.8837 140.42C88.3877 144.284 89.1397 148.668 89.1397 148.668L80.7877 148.892L83.6317 149.648L84.8317 167.684L63.2078 166.932L64.3558 157.66L65.3158 148.4L60.5918 148C60.5918 148 62.1918 139.932 65.0278 137.44C66.8064 136.003 68.9736 135.129 71.2517 134.932C73.7111 134.793 76.1763 134.793 78.6357 134.932" fill="#C29B00"/>
<path d="M66.092 142.4C66.144 142.4 65.812 145.664 65.356 149.68C64.9 153.696 64.488 156.948 64.436 156.94C64.384 156.932 64.716 153.676 65.176 149.66C65.636 145.644 66.044 142.4 66.092 142.4Z" fill="#263238"/>
<path d="M79.2801 134.968C79.2801 134.968 79.2801 135.02 79.3041 135.12C79.3281 135.22 79.3241 135.368 79.3281 135.556C79.3395 136.099 79.2597 136.64 79.0921 137.156C78.8734 137.945 78.4513 138.662 77.8681 139.236C77.5087 139.578 77.0824 139.842 76.6161 140.012C76.1087 140.179 75.578 140.262 75.044 140.26C74.5085 140.274 73.9729 140.238 73.444 140.152C72.9502 140.074 72.4807 139.884 72.072 139.596C71.4187 139.089 70.9596 138.373 70.772 137.568C70.6301 137.047 70.5694 136.507 70.592 135.968C70.592 135.78 70.612 135.632 70.624 135.532C70.6267 135.48 70.6361 135.429 70.652 135.38C70.6631 135.576 70.6631 135.772 70.652 135.968C70.6552 136.501 70.7319 137.032 70.88 137.544C71.0778 138.313 71.5287 138.994 72.16 139.476C72.551 139.746 72.9983 139.924 73.468 139.996C73.9811 140.078 74.5006 140.113 75.02 140.1C75.5348 140.1 76.0464 140.019 76.5361 139.86C76.9835 139.704 77.3925 139.454 77.7361 139.128C78.3065 138.576 78.7265 137.888 78.9561 137.128C79.1273 136.624 79.223 136.097 79.2401 135.564C79.2721 135.2 79.2681 134.968 79.2801 134.968Z" fill="#263238"/>
<g opacity="0.2">
<path d="M80.4395 142.4C79.6395 146.228 78.5955 150.16 77.7955 154C77.6822 154.825 77.393 155.616 76.9475 156.32C76.6178 156.723 76.2326 157.077 75.8035 157.372C74.26 158.606 72.5429 159.607 70.7075 160.34C73.3866 160.111 76.0406 159.649 78.6395 158.96C78.8566 158.948 79.0691 158.893 79.2648 158.798C79.4604 158.703 79.6353 158.57 79.7792 158.407C79.9232 158.244 80.0334 158.054 80.1035 157.848C80.1736 157.643 80.2021 157.425 80.1875 157.208C80.7635 152.3 80.5875 147.352 80.4395 142.408" fill="black"/>
</g>
<path d="M89.2761 148.732C89.0687 148.768 88.8584 148.784 88.6481 148.78L86.9321 148.844C85.4881 148.892 83.4881 148.94 81.2761 148.984H80.5681H80.4801V148.896C80.4001 146.844 80.4361 145.02 80.4801 143.696C80.4801 143.044 80.5241 142.516 80.5481 142.152C80.5489 141.963 80.5663 141.774 80.6001 141.588C80.6155 141.776 80.6155 141.964 80.6001 142.152C80.6001 142.552 80.6001 143.068 80.6001 143.7C80.6001 145.012 80.5761 146.836 80.6601 148.876L80.5681 148.788H81.2801C83.4881 148.744 85.4881 148.716 86.9361 148.704H88.6521C88.8605 148.697 89.0691 148.707 89.2761 148.732Z" fill="#263238"/>
<path d="M28.0762 149.6L35.4562 164.121H58.7282L57.7842 162.229L51.0442 162.025L45.5482 149.792C45.3812 149.42 45.1098 149.104 44.767 148.882C44.4241 148.661 44.0244 148.544 43.6162 148.544H28.7322C28.6081 148.546 28.4864 148.578 28.3783 148.639C28.2702 148.7 28.1792 148.787 28.1137 148.892C28.0483 148.997 28.0105 149.118 28.004 149.241C27.9974 149.365 28.0222 149.489 28.0762 149.6Z" fill="#E0E0E0"/>
<path d="M38.8398 157C39.3324 157 39.7318 156.601 39.7318 156.108C39.7318 155.616 39.3324 155.216 38.8398 155.216C38.3471 155.216 37.9478 155.616 37.9478 156.108C37.9478 156.601 38.3471 157 38.8398 157Z" fill="#263238"/>
<path d="M79.3963 124L78.5643 135.808C78.4976 136.736 78.0819 137.605 77.4007 138.24C76.7194 138.874 75.8233 139.227 74.8923 139.228C74.3887 139.228 73.8904 139.125 73.4283 138.924C72.9662 138.724 72.55 138.431 72.2055 138.064C71.861 137.697 71.5955 137.262 71.4254 136.788C71.2552 136.314 71.1841 135.811 71.2163 135.308C71.2923 134.184 71.3564 133.26 71.3564 133.26C71.3564 133.26 68.5044 132.816 68.4644 129.96C68.4644 128.612 68.6244 125.96 68.8244 123.444C68.9378 122.035 69.5765 120.721 70.6138 119.761C71.6512 118.802 73.0113 118.267 74.4243 118.264C75.131 118.304 75.8224 118.485 76.4576 118.798C77.0928 119.11 77.659 119.546 78.1226 120.081C78.5862 120.616 78.9377 121.238 79.1565 121.911C79.3753 122.584 79.4569 123.295 79.3963 124Z" fill="#FFBE9D"/>
<path d="M71.34 133.408C72.6605 133.433 73.9585 133.064 75.068 132.348C75.068 132.348 74.184 134.404 71.332 134.148L71.34 133.408Z" fill="#EB996E"/>
<path d="M69.7202 125.308C69.7202 125.414 69.7624 125.516 69.8374 125.591C69.9124 125.666 70.0141 125.708 70.1202 125.708C70.2244 125.714 70.3266 125.678 70.4051 125.609C70.4835 125.541 70.532 125.444 70.5402 125.34C70.5402 125.234 70.4981 125.132 70.4231 125.057C70.348 124.982 70.2463 124.94 70.1402 124.94C70.036 124.934 69.9338 124.97 69.8554 125.039C69.7769 125.107 69.7284 125.204 69.7202 125.308Z" fill="#263238"/>
<path d="M69.4638 124.748C69.5158 124.8 69.8238 124.572 70.2638 124.572C70.7038 124.572 71.0238 124.792 71.0638 124.74C71.1038 124.688 71.0358 124.62 70.8958 124.516C70.705 124.385 70.479 124.316 70.2478 124.316C70.0192 124.317 69.7967 124.389 69.6118 124.524C69.4838 124.628 69.4398 124.724 69.4638 124.748Z" fill="#263238"/>
<path d="M73.856 125.428C73.856 125.534 73.8981 125.636 73.9731 125.711C74.0481 125.786 74.1499 125.828 74.256 125.828C74.3567 125.828 74.4539 125.79 74.5281 125.722C74.6022 125.654 74.6479 125.56 74.656 125.46C74.656 125.354 74.6138 125.252 74.5388 125.177C74.4638 125.102 74.362 125.06 74.256 125.06C74.1552 125.059 74.058 125.097 73.9838 125.165C73.9097 125.234 73.864 125.327 73.856 125.428Z" fill="#263238"/>
<path d="M73.7804 124.828C73.8324 124.88 74.1444 124.652 74.5804 124.656C75.0164 124.66 75.3404 124.876 75.3804 124.82C75.4204 124.764 75.3524 124.7 75.2124 124.6C75.0227 124.467 74.796 124.397 74.5644 124.4C74.3361 124.399 74.1133 124.47 73.9284 124.604C73.8044 124.708 73.7564 124.8 73.7804 124.828Z" fill="#263238"/>
<path d="M72.1878 128.084C71.9565 128.013 71.7174 127.97 71.4758 127.956C71.3638 127.956 71.2558 127.924 71.2358 127.848C71.227 127.731 71.2535 127.614 71.3118 127.512L71.6438 126.66C71.9501 125.937 72.1988 125.19 72.3878 124.428C72.0237 125.125 71.7148 125.85 71.4638 126.596C71.3558 126.896 71.2478 127.18 71.1478 127.452C71.0756 127.588 71.0557 127.746 71.0918 127.896C71.1084 127.935 71.1336 127.97 71.1654 127.999C71.1972 128.027 71.2349 128.048 71.2758 128.06C71.3374 128.075 71.4005 128.083 71.4638 128.084C71.704 128.117 71.9476 128.117 72.1878 128.084Z" fill="#263238"/>
<path d="M73.4802 128.4C73.4082 128.4 73.4082 128.872 73.0002 129.2C72.5922 129.528 72.0842 129.488 72.0802 129.552C72.0762 129.616 72.1962 129.644 72.4082 129.652C72.6879 129.657 72.9602 129.562 73.1762 129.384C73.3835 129.214 73.5168 128.97 73.5482 128.704C73.5682 128.504 73.5122 128.4 73.4802 128.4Z" fill="#263238"/>
<path d="M73.6676 123.108C73.7116 123.228 74.1516 123.172 74.6636 123.232C75.1756 123.292 75.5956 123.436 75.6636 123.328C75.7316 123.22 75.6236 123.164 75.4556 123.048C75.2318 122.906 74.9785 122.817 74.7151 122.788C74.4517 122.759 74.1851 122.79 73.9356 122.88C73.7436 122.956 73.6476 123.052 73.6676 123.108Z" fill="#263238"/>
<path d="M69.6281 123.476C69.7041 123.576 70.0281 123.476 70.3721 123.476C70.7161 123.476 71.0401 123.544 71.1121 123.436C71.1841 123.328 71.1121 123.288 70.9601 123.192C70.7793 123.077 70.5684 123.02 70.3546 123.026C70.1407 123.033 69.9337 123.103 69.7601 123.228C69.6361 123.324 69.6001 123.428 69.6281 123.476Z" fill="#263238"/>
<path d="M78.432 126.332C78.48 126.308 80.396 125.752 80.332 127.704C80.268 129.656 78.332 129.192 78.332 129.136C78.332 129.08 78.432 126.332 78.432 126.332Z" fill="#FFBE9D"/>
<path d="M78.9398 128.4C78.9398 128.4 78.9758 128.424 79.0318 128.452C79.0718 128.468 79.1146 128.477 79.1578 128.477C79.2011 128.477 79.2439 128.468 79.2838 128.452C79.41 128.375 79.5134 128.266 79.5837 128.136C79.6539 128.006 79.6885 127.86 79.6838 127.712C79.6919 127.544 79.6646 127.376 79.6038 127.22C79.5867 127.159 79.5553 127.103 79.5122 127.056C79.4691 127.009 79.4155 126.974 79.3558 126.952C79.3174 126.94 79.2759 126.941 79.2386 126.957C79.2013 126.972 79.1706 127 79.1518 127.036C79.1238 127.092 79.1518 127.132 79.1238 127.132C79.0958 127.132 79.0838 127.1 79.1238 127.02C79.1346 126.971 79.1632 126.929 79.2038 126.9C79.2306 126.88 79.2611 126.866 79.2934 126.859C79.3257 126.851 79.3591 126.85 79.3918 126.856C79.4718 126.874 79.5458 126.912 79.6068 126.966C79.6677 127.021 79.7136 127.09 79.7398 127.168C79.8163 127.341 79.8506 127.531 79.8398 127.72C79.8423 127.894 79.7941 128.065 79.701 128.212C79.608 128.359 79.4741 128.476 79.3158 128.548C79.2622 128.559 79.2069 128.559 79.1532 128.548C79.0995 128.537 79.0487 128.515 79.0038 128.484C78.9438 128.464 78.9358 128.42 78.9398 128.4Z" fill="#EB996E"/>
<path d="M61.2043 164.145H32.7603V165.533H61.2043V164.145Z" fill="#263238"/>
<path d="M52.4443 164.841L61.0963 180.493H68.8443L61.2043 165.533L52.4443 164.841Z" fill="#263238"/>
<path d="M61.2003 165.533C61.2003 165.589 54.8243 165.669 46.9603 165.709C39.0962 165.749 32.7202 165.733 32.7202 165.677C32.7202 165.621 39.0962 165.541 46.9603 165.501C54.8243 165.461 61.2003 165.477 61.2003 165.533Z" fill="#455A64"/>
<path d="M68.0358 122.172C68.2954 122.267 68.5724 122.306 68.8483 122.286C69.1241 122.266 69.3926 122.188 69.6358 122.056C69.5924 122.104 69.5598 122.161 69.5402 122.223C69.5205 122.286 69.5143 122.351 69.5218 122.416C69.5294 122.48 69.5506 122.543 69.584 122.599C69.6175 122.654 69.6624 122.702 69.7158 122.74C69.9405 122.878 70.2057 122.936 70.4678 122.904C71.8892 122.849 73.2405 122.272 74.2637 121.284C74.2864 121.531 74.3811 121.765 74.5362 121.959C74.6912 122.152 74.8997 122.296 75.1357 122.372C75.6121 122.514 76.1194 122.514 76.5957 122.372C76.4191 123.094 76.3892 123.845 76.5077 124.58C76.5719 124.945 76.7417 125.284 76.9962 125.554C77.2507 125.824 77.5787 126.014 77.9397 126.1C78.031 126.478 78.062 126.868 78.0317 127.256C78.0597 127.656 78.2837 128.088 78.6757 128.1C79.0677 128.112 79.2717 127.756 79.3197 127.416C79.3677 127.076 79.1637 126.384 79.4077 125.836C79.6517 125.288 79.5677 125.348 79.8277 124.752C80.0877 124.156 80.2277 123.332 80.4437 122.712C80.6783 122.095 80.6966 121.416 80.4957 120.788C80.3853 120.48 80.183 120.213 79.9162 120.023C79.6495 119.834 79.331 119.731 79.0037 119.728C79.1232 119.419 79.142 119.08 79.0575 118.76C78.973 118.439 78.7894 118.154 78.5331 117.944C78.2767 117.734 77.9607 117.611 77.63 117.591C77.2993 117.572 76.9709 117.657 76.6917 117.836C76.6917 117.836 74.4677 116.324 72.0078 117.16C69.5478 117.996 69.1798 120.228 68.6438 120.296C68.1078 120.364 66.4838 119.496 66.7638 120.04C67.0438 120.584 67.5078 121.132 67.7398 121.156C67.9718 121.18 65.8798 120.296 66.5998 121.088C67.0005 121.542 67.4889 121.911 68.0358 122.172Z" fill="#263238"/>
<path d="M87.6443 141.2C87.4156 140.925 87.1567 140.677 86.8723 140.46C86.0672 139.906 85.1051 139.626 84.1283 139.66C82.8923 139.66 81.4763 140.192 80.0843 141.044C78.6923 141.896 77.2643 143.044 75.4963 143.816C73.8259 144.571 71.9261 144.641 70.2043 144.012C69.4635 143.735 68.772 143.341 68.1563 142.844C67.5763 142.396 67.0643 141.944 66.5563 141.58C65.799 140.962 64.874 140.584 63.9003 140.496C63.5419 140.488 63.1843 140.535 62.8403 140.636C62.8403 140.636 62.8403 140.636 62.9043 140.604C62.968 140.575 63.0335 140.549 63.1003 140.528C63.3598 140.45 63.6295 140.413 63.9003 140.416C64.9008 140.473 65.8592 140.838 66.6443 141.46C67.6683 142.168 68.7123 143.292 70.2443 143.832C71.9231 144.426 73.7659 144.353 75.3923 143.628C77.1203 142.876 78.5363 141.712 79.9643 140.88C81.3923 140.048 82.8323 139.488 84.1043 139.512C85.1109 139.49 86.0961 139.804 86.9043 140.404C87.1195 140.567 87.3118 140.758 87.4763 140.972C87.5416 141.041 87.598 141.117 87.6443 141.2Z" fill="#FAFAFA"/>
<path d="M80.5282 151.728C80.5282 151.728 80.3322 151.6 79.9762 151.396C79.4717 151.106 78.9252 150.896 78.3562 150.772C77.5167 150.586 76.6449 150.601 75.8123 150.816C74.8683 151.052 73.9043 151.548 72.8323 151.944C72.3076 152.138 71.7628 152.272 71.2083 152.344C70.6908 152.409 70.1678 152.419 69.6483 152.372C68.7698 152.294 67.9124 152.06 67.1163 151.68C66.5787 151.431 66.079 151.106 65.6323 150.716C65.5083 150.614 65.392 150.503 65.2843 150.384C65.2083 150.308 65.1683 150.264 65.1763 150.256C65.1843 150.248 65.3563 150.4 65.6843 150.656C66.1436 151.014 66.6446 151.315 67.1763 151.552C67.9641 151.902 68.8052 152.117 69.6643 152.188C70.7164 152.27 71.7735 152.118 72.7603 151.744C73.7405 151.318 74.7433 150.945 75.7643 150.628C76.4835 150.449 77.2317 150.418 77.9634 150.537C78.6951 150.656 79.3949 150.922 80.0202 151.32C80.1588 151.409 80.2923 151.505 80.4202 151.608C80.4922 151.684 80.5322 151.724 80.5282 151.728Z" fill="#FAFAFA"/>
<path d="M83.6757 158.453C83.424 158.353 83.1661 158.27 82.9037 158.205C82.1747 158.087 81.4278 158.154 80.7317 158.401C80.2483 158.559 79.7798 158.76 79.3317 159.001C78.8437 159.257 78.3357 159.561 77.7877 159.857C77.2139 160.182 76.6063 160.443 75.9757 160.637C75.2855 160.839 74.5563 160.869 73.8517 160.725C72.3997 160.409 71.2517 159.569 70.1957 158.941C69.2959 158.314 68.2639 157.904 67.1797 157.741C66.4464 157.663 65.7075 157.823 65.0718 158.197C64.8447 158.344 64.6353 158.517 64.4478 158.713C64.48 158.649 64.5204 158.59 64.5678 158.537C64.7013 158.382 64.8562 158.247 65.0278 158.137C65.6711 157.719 66.4361 157.53 67.1997 157.601C68.1677 157.649 69.2357 158.125 70.3037 158.769C71.3717 159.413 72.5117 160.213 73.9037 160.513C74.5762 160.651 75.2722 160.623 75.9317 160.433C76.5484 160.245 77.1437 159.993 77.7077 159.681C78.2557 159.393 78.7677 159.093 79.2637 158.837C79.7253 158.599 80.2072 158.404 80.7037 158.253C81.4207 158.008 82.1908 157.962 82.9317 158.121C83.1313 158.168 83.3247 158.24 83.5077 158.333C83.6197 158.401 83.6797 158.445 83.6757 158.453Z" fill="#FAFAFA"/>
<path d="M84.6961 166.096C84.6343 166.135 84.5668 166.163 84.4961 166.18C84.2939 166.238 84.0859 166.273 83.8761 166.284C83.1008 166.285 82.334 166.124 81.6241 165.812C81.1355 165.621 80.6359 165.46 80.1281 165.328C79.5432 165.206 78.9433 165.171 78.3481 165.224C77.0841 165.332 75.7521 165.812 74.3481 166.22C73.6527 166.427 72.9407 166.573 72.2201 166.656C71.545 166.719 70.8651 166.71 70.1921 166.628C69.0599 166.471 67.9515 166.174 66.8921 165.744C66.1791 165.465 65.4809 165.15 64.8001 164.8C64.5561 164.68 64.3721 164.576 64.2481 164.508C64.1809 164.477 64.1178 164.438 64.0601 164.392C64.1319 164.408 64.2008 164.435 64.2641 164.472L64.8321 164.728C65.3281 164.952 66.0321 165.276 66.9441 165.612C67.9968 166.017 69.0938 166.295 70.2121 166.44C70.8767 166.514 71.5474 166.514 72.2121 166.44C72.9207 166.358 73.6207 166.213 74.3041 166.008C75.7161 165.608 77.0641 165.124 78.3641 165.024C78.9788 164.971 79.5981 165.013 80.2001 165.148C80.7136 165.287 81.2174 165.459 81.7081 165.664C82.3995 165.979 83.145 166.158 83.9041 166.192C84.1703 166.183 84.4352 166.15 84.6961 166.096Z" fill="#FAFAFA"/>
<path d="M88.7997 146.712C88.732 146.81 88.6497 146.896 88.5557 146.968C88.3081 147.177 88.0303 147.347 87.7317 147.472C87.2844 147.658 86.8041 147.752 86.3197 147.748C85.7252 147.726 85.143 147.572 84.6157 147.296C84.0557 147.028 83.5517 146.736 83.0597 146.56C82.6287 146.404 82.1664 146.353 81.7117 146.412C81.4058 146.452 81.1159 146.572 80.8717 146.76C80.7037 146.904 80.6317 147.008 80.6157 146.996C80.6568 146.883 80.7255 146.781 80.8157 146.7C81.0556 146.473 81.3578 146.323 81.6837 146.268C82.1655 146.184 82.6608 146.222 83.1237 146.38C83.6713 146.59 84.2057 146.833 84.7237 147.108C85.2191 147.37 85.7646 147.523 86.3237 147.556C86.7843 147.57 87.2433 147.496 87.6757 147.336C88.0702 147.166 88.4467 146.957 88.7997 146.712Z" fill="#FAFAFA"/>
<path d="M65.5676 146.512C65.5676 146.512 65.5436 146.58 65.4396 146.652C65.2884 146.745 65.113 146.791 64.9356 146.784C64.6754 146.775 64.4213 146.702 64.1956 146.572C63.9436 146.432 63.7036 146.236 63.4436 146.068C63.0027 145.778 62.4663 145.67 61.9476 145.768C61.5476 145.84 61.3276 145.988 61.3076 145.956C61.4703 145.784 61.683 145.668 61.9156 145.624C62.1925 145.549 62.4822 145.535 62.7652 145.582C63.0482 145.629 63.3177 145.736 63.5556 145.896C63.8316 146.072 64.0636 146.268 64.2916 146.404C64.489 146.529 64.7117 146.608 64.9436 146.636C65.159 146.652 65.3745 146.609 65.5676 146.512Z" fill="#FAFAFA"/>
<path d="M54.704 159.428L60.524 158.728L64.6239 161.416L80.3038 157.66L80.7638 148.908L87.8037 148.732L87.6397 159.004C87.6232 159.79 87.4513 160.565 87.1341 161.284C86.8168 162.003 86.3605 162.653 85.7913 163.195C85.2221 163.737 84.5513 164.161 83.8175 164.443C83.0837 164.724 82.3015 164.858 81.5158 164.836L58.548 164.2L57.572 162.244L52.644 162.1L54.704 159.428Z" fill="#FFBE9D"/>
<path d="M80.1079 157.661C80.0112 157.696 79.9123 157.726 79.8119 157.749L78.9599 157.973L75.8119 158.773L65.4119 161.293L64.4479 161.521H64.4079L64.3759 161.497L60.2759 158.801H60.3319L54.512 159.473H54.548L53.012 161.425C52.836 161.637 52.7 161.825 52.612 161.937C52.5666 161.998 52.5157 162.056 52.46 162.109C52.4971 162.041 52.5399 161.977 52.588 161.917L52.988 161.385L54.484 159.385H54.508L60.3239 158.657H60.3559H60.3839L64.4879 161.337H64.4159L65.3839 161.105L75.7839 158.637L78.9479 157.909L79.8079 157.721C79.9058 157.691 80.0062 157.671 80.1079 157.661Z" fill="#EB996E"/>
<path d="M57.884 161.097C57.1329 161.187 56.3759 161.217 55.62 161.189H55.22H55.28C54.8236 161.606 54.3325 161.983 53.812 162.317C54.2238 161.857 54.6748 161.434 55.16 161.053L55.188 161.029H55.632C56.3833 160.99 57.1364 161.013 57.884 161.097Z" fill="#EB996E"/>
<path d="M82.9957 159.413C82.7178 158.928 82.3253 158.519 81.8524 158.221C81.3796 157.923 80.841 157.746 80.2837 157.705C80.4453 157.648 80.6191 157.634 80.7877 157.665C81.2013 157.707 81.5995 157.844 81.9517 158.065C82.3032 158.285 82.5978 158.585 82.8117 158.941C82.9142 159.079 82.9777 159.242 82.9957 159.413Z" fill="#EB996E"/>
</svg>
